999
dxfrw 0.6.3
  0
SECTION
  2
HEADER
  9
$ACADVER
  1
AC1021
  9
$DWGCODEPAGE
  3
ANSI_1252
  9
$INSBASE
 10
0
 20
0
 30
0
  9
$EXTMIN
 10
-310.0000000000001
 20
-100.4929174956987
 30
0
  9
$EXTMAX
 10
310.0000000000001
 20
100.4929174956987
 30
0
  9
$LIMMIN
 10
0
 20
0
  9
$LIMMAX
 10
420
 20
297
  9
$ORTHOMODE
 70
    0
  9
$REGENMODE
 70
    1
  9
$FILLMODE
 70
    1
  9
$QTEXTMODE
 70
    0
  9
$MIRRTEXT
 70
    0
  9
$LTSCALE
 40
1
  9
$ATTMODE
 70
    0
  9
$TEXTSIZE
 40
2.5
  9
$TRACEWID
 40
15.68
  9
$TEXTSTYLE
  7
STANDARD
  9
$CLAYER
  8
0
  9
$CELTYPE
  6
BYLAYER
  9
$CECOLOR
 62
  256
  9
$CELTSCALE
 40
1
  9
$DISPSILH
 70
    0
  9
$DIMSCALE
 40
2.5
  9
$DIMASZ
 40
2.5
  9
$DIMEXO
 40
0.625
  9
$DIMDLI
 40
3.75
  9
$DIMRND
 40
0
  9
$DIMDLE
 40
0
  9
$DIMEXE
 40
1.25
  9
$DIMTP
 40
0
  9
$DIMTM
 40
0
  9
$DIMTXT
 40
2.5
  9
$DIMCEN
 40
2.5
  9
$DIMTSZ
 40
0
  9
$DIMTOL
 70
    0
  9
$DIMLIM
 70
    0
  9
$DIMTIH
 70
    0
  9
$DIMTOH
 70
    0
  9
$DIMSE1
 70
    0
  9
$DIMSE2
 70
    0
  9
$DIMTAD
 70
    1
  9
$DIMZIN
 70
    8
  9
$DIMBLK
  1

  9
$DIMASO
 70
    1
  9
$DIMSHO
 70
    1
  9
$DIMPOST
  1

  9
$DIMAPOST
  1

  9
$DIMALT
 70
    0
  9
$DIMALTD
 70
    3
  9
$DIMALTF
 40
0.03937
  9
$DIMLFAC
 40
1
  9
$DIMTOFL
 70
    1
  9
$DIMTVP
 40
0
  9
$DIMTIX
 70
    0
  9
$DIMSOXD
 70
    0
  9
$DIMSAH
 70
    0
  9
$DIMBLK1
  1

  9
$DIMBLK2
  1

  9
$DIMSTYLE
  2
Standard
  9
$DIMCLRD
 70
    0
  9
$DIMCLRE
 70
    0
  9
$DIMCLRT
 70
    0
  9
$DIMTFAC
 40
1
  9
$DIMGAP
 40
0.625
  9
$DIMJUST
 70
    0
  9
$DIMSD1
 70
    0
  9
$DIMSD2
 70
    0
  9
$DIMTOLJ
 70
    0
  9
$DIMTZIN
 70
    8
  9
$DIMALTZ
 70
    0
  9
$DIMALTTZ
 70
    0
  9
$DIMUPT
 70
    0
  9
$DIMDEC
 70
    2
  9
$DIMTDEC
 70
    2
  9
$DIMALTU
 70
    2
  9
$DIMALTTD
 70
    3
  9
$DIMTXSTY
  7
STANDARD
  9
$DIMAUNIT
 70
    0
  9
$DIMADEC
 70
    0
  9
$DIMALTRND
 40
0
  9
$DIMAZIN
 70
    0
  9
$DIMDSEP
 70
   44
  9
$DIMATFIT
 70
    3
  9
$DIMFRAC
 70
    0
  9
$DIMLDRBLK
  1
STANDARD
  9
$DIMLUNIT
 70
    2
  9
$DIMLWD
 70
   -2
  9
$DIMLWE
 70
   -2
  9
$DIMTMOVE
 70
    0
  9
$DIMFXL
 40
1
  9
$DIMFXLON
 70
    0
  9
$DIMJOGANG
 40
0.7854
  9
$DIMTFILL
 70
    0
  9
$DIMTFILLCLR
 70
    0
  9
$DIMARCSYM
 70
    0
  9
$DIMLTYPE
  6

  9
$DIMLTEX1
  6

  9
$DIMLTEX2
  6

  9
$LUNITS
 70
    2
  9
$LUPREC
 70
    4
  9
$SKETCHINC
 40
1
  9
$FILLETRAD
 40
0
  9
$AUNITS
 70
    0
  9
$AUPREC
 70
    2
  9
$MENU
  1
.
  9
$ELEVATION
 40
0
  9
$PELEVATION
 40
0
  9
$THICKNESS
 40
0
  9
$LIMCHECK
 70
    0
  9
$CHAMFERA
 40
0
  9
$CHAMFERB
 40
0
  9
$CHAMFERC
 40
0
  9
$CHAMFERD
 40
0
  9
$SKPOLY
 70
    0
  9
$USRTIMER
 70
    1
  9
$ANGBASE
 50
0
  9
$ANGDIR
 70
    0
  9
$PDMODE
 70
   34
  9
$PDSIZE
 40
0
  9
$PLINEWID
 40
0
  9
$SPLFRAME
 70
    0
  9
$SPLINETYPE
 70
    2
  9
$SPLINESEGS
 70
    8
  9
$HANDSEED
  5
20000
  9
$SURFTAB1
 70
    6
  9
$SURFTAB2
 70
    6
  9
$SURFTYPE
 70
    6
  9
$SURFU
 70
    6
  9
$SURFV
 70
    6
  9
$UCSBASE
  2

  9
$UCSNAME
  2

  9
$UCSORG
 10
0
 20
0
 30
0
  9
$UCSXDIR
 10
1
 20
0
 30
0
  9
$UCSYDIR
 10
0
 20
1
 30
0
  9
$UCSORTHOREF
  2

  9
$UCSORTHOVIEW
 70
    0
  9
$UCSORGTOP
 10
0
 20
0
 30
0
  9
$UCSORGBOTTOM
 10
0
 20
0
 30
0
  9
$UCSORGLEFT
 10
0
 20
0
 30
0
  9
$UCSORGRIGHT
 10
0
 20
0
 30
0
  9
$UCSORGFRONT
 10
0
 20
0
 30
0
  9
$UCSORGBACK
 10
0
 20
0
 30
0
  9
$PUCSBASE
  2

  9
$PUCSNAME
  2

  9
$PUCSORG
 10
0
 20
0
 30
0
  9
$PUCSXDIR
 10
1
 20
0
 30
0
  9
$PUCSYDIR
 10
0
 20
1
 30
0
  9
$PUCSORTHOREF
  2

  9
$PUCSORTHOVIEW
 70
    0
  9
$PUCSORGTOP
 10
0
 20
0
 30
0
  9
$PUCSORGBOTTOM
 10
0
 20
0
 30
0
  9
$PUCSORGLEFT
 10
0
 20
0
 30
0
  9
$PUCSORGRIGHT
 10
0
 20
0
 30
0
  9
$PUCSORGFRONT
 10
0
 20
0
 30
0
  9
$PUCSORGBACK
 10
0
 20
0
 30
0
  9
$USERI1
 70
    0
  9
$USERI2
 70
    0
  9
$USERI3
 70
    0
  9
$USERI4
 70
    0
  9
$USERI5
 70
    0
  9
$USERR1
 40
0
  9
$USERR2
 40
0
  9
$USERR3
 40
0
  9
$USERR4
 40
0
  9
$USERR5
 40
0
  9
$WORLDVIEW
 70
    1
  9
$SHADEDGE
 70
    3
  9
$SHADEDIF
 70
   70
  9
$TILEMODE
 70
    1
  9
$MAXACTVP
 70
   64
  9
$PINSBASE
 10
0
 20
0
 30
0
  9
$PLIMCHECK
 70
    0
  9
$PEXTMIN
 10
0
 20
0
 30
0
  9
$PEXTMAX
 10
0
 20
0
 30
0
  9
$SNAPSTYLE
 70
    0
  9
$PLIMMIN
 10
0
 20
0
  9
$PLIMMAX
 10
210
 20
297
  9
$UNITMODE
 70
    0
  9
$VISRETAIN
 70
    1
  9
$PLINEGEN
 70
    0
  9
$PSLTSCALE
 70
    1
  9
$TREEDEPTH
 70
 3020
  9
$CMLSTYLE
  2
Standard
  9
$CMLJUST
 70
    0
  9
$CMLSCALE
 40
20
  9
$PROXYGRAPHICS
 70
    1
  9
$MEASUREMENT
 70
    1
  9
$CELWEIGHT
370
   -1
  9
$ENDCAPS
280
    0
  9
$JOINSTYLE
280
    0
  9
$LWDISPLAY
290
    0
  9
$INSUNITS
 70
    4
  9
$HYPERLINKBASE
  1

  9
$STYLESHEET
  1

  9
$XEDIT
290
    1
  9
$CEPSNTYPE
380
    0
  9
$PSTYLEMODE
290
    1
  9
$EXTNAMES
290
    1
  9
$PSVPSCALE
 40
1
  9
$OLESTARTUP
290
    0
  9
$SORTENTS
280
  127
  9
$INDEXCTL
280
    0
  9
$HIDETEXT
280
    1
  9
$XCLIPFRAME
290
    0
  9
$HALOGAP
280
    0
  9
$OBSCOLOR
 70
  257
  9
$OBSLTYPE
280
    0
  9
$INTERSECTIONDISPLAY
280
    0
  9
$INTERSECTIONCOLOR
 70
  257
  9
$DIMASSOC
280
    1
  9
$PROJECTNAME
  1

  9
$CAMERADISPLAY
290
    0
  9
$LENSLENGTH
 40
50
  9
$CAMERAHEIGHT
 40
0
  9
$STEPSPERSEC
 40
2
  9
$STEPSIZE
 40
50
  9
$3DDWFPREC
 40
2
  9
$PSOLWIDTH
 40
5
  9
$PSOLHEIGHT
 40
80
  9
$LOFTANG1
 40
1.570796326794897
  9
$LOFTANG2
 40
1.570796326794897
  9
$LOFTMAG1
 40
0
  9
$LOFTMAG2
 40
0
  9
$LOFTPARAM
 70
    7
  9
$LOFTNORMALS
280
    1
  9
$LATITUDE
 40
1
  9
$LONGITUDE
 40
1
  9
$NORTHDIRECTION
 40
0
  9
$TIMEZONE
 70
-8000
  9
$LIGHTGLYPHDISPLAY
280
    1
  9
$TILEMODELIGHTSYNCH
280
    1
  9
$SOLIDHIST
280
    1
  9
$SHOWHIST
280
    1
  9
$DWFFRAME
280
    2
  9
$DGNFRAME
280
    0
  9
$REALWORLDSCALE
290
    1
  9
$INTERFERECOLOR
 62
    1
  9
$CSHADOW
280
    0
  9
$SHADOWPLANELOCATION
 40
0
  0
ENDSEC
  0
SECTION
  2
CLASSES
  0
ENDSEC
  0
SECTION
  2
TABLES
  0
TABLE
  2
VPORT
  5
8
330
0
100
AcDbSymbolTable
 70
    1
  0
VPORT
  5
31
330
2
100
AcDbSymbolTableRecord
100
AcDbViewportTableRecord
  2
*ACTIVE
 70
    0
 10
0
 20
0
 11
1
 21
1
 12
228.0123131046614
 22
86.74142480211081
 13
0
 23
0
 14
10
 24
10
 15
10
 25
10
 16
0
 26
0
 36
1
 17
0
 27
0
 37
0
 40
257.0360598065084
 41
1.90846877673225
 42
50
 43
0
 44
0
 50
0
 51
0
 71
    0
 72
  100
 73
    1
 74
    3
 75
    0
 76
    1
 77
    0
 78
    0
281
    0
 65
    1
110
0
120
0
130
0
111
1
121
0
131
0
112
0
122
1
132
0
 79
    0
146
0
348
10020
 60
    7
 61
    5
292
1
282
    1
141
0
142
0
 63
  250
421
3358443
  0
ENDTAB
  0
TABLE
  2
LTYPE
  5
5
330
0
100
AcDbSymbolTable
 70
    4
  0
LTYPE
  5
14
330
5
100
AcDbSymbolTableRecord
100
AcDbLinetypeTableRecord
  2
ByBlock
 70
    0
  3

 72
   65
 73
    0
 40
0
  0
LTYPE
  5
15
330
5
100
AcDbSymbolTableRecord
100
AcDbLinetypeTableRecord
  2
ByLayer
 70
    0
  3

 72
   65
 73
    0
 40
0
  0
LTYPE
  5
16
330
5
100
AcDbSymbolTableRecord
100
AcDbLinetypeTableRecord
  2
Continuous
 70
    0
  3
Solid line
 72
   65
 73
    0
 40
0
  0
LTYPE
  5
32
330
5
100
AcDbSymbolTableRecord
100
AcDbLinetypeTableRecord
  2
DOT
 70
    0
  3
Dot . . . . . . . . . . . . . . . . . . . . . .
 72
   65
 73
    2
 40
6.35
 49
0
 74
    0
 49
-6.35
 74
    0
  0
LTYPE
  5
33
330
5
100
AcDbSymbolTableRecord
100
AcDbLinetypeTableRecord
  2
DOTTINY
 70
    0
  3
Dot (.15x) .....................................
 72
   65
 73
    2
 40
0.9525
 49
0
 74
    0
 49
-0.9525
 74
    0
  0
LTYPE
  5
34
330
5
100
AcDbSymbolTableRecord
100
AcDbLinetypeTableRecord
  2
DOT2
 70
    0
  3
Dot (.5x) .....................................
 72
   65
 73
    2
 40
3.175
 49
0
 74
    0
 49
-3.175
 74
    0
  0
LTYPE
  5
35
330
5
100
AcDbSymbolTableRecord
100
AcDbLinetypeTableRecord
  2
DOTX2
 70
    0
  3
Dot (2x) .  .  .  .  .  .  .  .  .  .  .  .  .
 72
   65
 73
    2
 40
12.7
 49
0
 74
    0
 49
-12.7
 74
    0
  0
LTYPE
  5
36
330
5
100
AcDbSymbolTableRecord
100
AcDbLinetypeTableRecord
  2
DASHED
 70
    0
  3
Dashed _ _ _ _ _ _ _ _ _ _ _ _ _ _ _ _ _
 72
   65
 73
    2
 40
19.05
 49
12.7
 74
    0
 49
-6.35
 74
    0
  0
LTYPE
  5
37
330
5
100
AcDbSymbolTableRecord
100
AcDbLinetypeTableRecord
  2
DASHEDTINY
 70
    0
  3
Dashed (.15x) _ _ _ _ _ _ _ _ _ _ _ _ _ _ _ _ _
 72
   65
 73
    2
 40
2.8575
 49
1.905
 74
    0
 49
-0.9525
 74
    0
  0
LTYPE
  5
38
330
5
100
AcDbSymbolTableRecord
100
AcDbLinetypeTableRecord
  2
DASHED2
 70
    0
  3
Dashed (.5x) _ _ _ _ _ _ _ _ _ _ _ _ _ _ _ _ _
 72
   65
 73
    2
 40
9.524999999999999
 49
6.35
 74
    0
 49
-3.175
 74
    0
  0
LTYPE
  5
39
330
5
100
AcDbSymbolTableRecord
100
AcDbLinetypeTableRecord
  2
DASHEDX2
 70
    0
  3
Dashed (2x) ____  ____  ____  ____  ____  ___
 72
   65
 73
    2
 40
38.09999999999999
 49
25.4
 74
    0
 49
-12.7
 74
    0
  0
LTYPE
  5
3A
330
5
100
AcDbSymbolTableRecord
100
AcDbLinetypeTableRecord
  2
DASHDOT
 70
    0
  3
Dash dot __ . __ . __ . __ . __ . __ . __ . __
 72
   65
 73
    4
 40
25.4
 49
12.7
 74
    0
 49
-6.35
 74
    0
 49
0
 74
    0
 49
-6.35
 74
    0
  0
LTYPE
  5
3B
330
5
100
AcDbSymbolTableRecord
100
AcDbLinetypeTableRecord
  2
DASHDOTTINY
 70
    0
  3
Dash dot (.15x) _._._._._._._._._._._._._._._.
 72
   65
 73
    4
 40
3.81
 49
1.905
 74
    0
 49
-0.9525
 74
    0
 49
0
 74
    0
 49
-0.9525
 74
    0
  0
LTYPE
  5
3C
330
5
100
AcDbSymbolTableRecord
100
AcDbLinetypeTableRecord
  2
DASHDOT2
 70
    0
  3
Dash dot (.5x) _._._._._._._._._._._._._._._.
 72
   65
 73
    4
 40
12.7
 49
6.35
 74
    0
 49
-3.175
 74
    0
 49
0
 74
    0
 49
-3.175
 74
    0
  0
LTYPE
  5
3D
330
5
100
AcDbSymbolTableRecord
100
AcDbLinetypeTableRecord
  2
DASHDOTX2
 70
    0
  3
Dash dot (2x) ____  .  ____  .  ____  .  ___
 72
   65
 73
    4
 40
50.8
 49
25.4
 74
    0
 49
-12.7
 74
    0
 49
0
 74
    0
 49
-12.7
 74
    0
  0
LTYPE
  5
3E
330
5
100
AcDbSymbolTableRecord
100
AcDbLinetypeTableRecord
  2
DIVIDE
 70
    0
  3
Divide ____ . . ____ . . ____ . . ____ . . ____
 72
   65
 73
    6
 40
31.75
 49
12.7
 74
    0
 49
-6.35
 74
    0
 49
0
 74
    0
 49
-6.35
 74
    0
 49
0
 74
    0
 49
-6.35
 74
    0
  0
LTYPE
  5
3F
330
5
100
AcDbSymbolTableRecord
100
AcDbLinetypeTableRecord
  2
DIVIDETINY
 70
    0
  3
Divide (.15x) __..__..__..__..__..__..__..__.._
 72
   65
 73
    6
 40
4.7625
 49
1.905
 74
    0
 49
-0.9525
 74
    0
 49
0
 74
    0
 49
-0.9525
 74
    0
 49
0
 74
    0
 49
-0.9525
 74
    0
  0
LTYPE
  5
40
330
5
100
AcDbSymbolTableRecord
100
AcDbLinetypeTableRecord
  2
DIVIDE2
 70
    0
  3
Divide (.5x) __..__..__..__..__..__..__..__.._
 72
   65
 73
    6
 40
15.875
 49
6.35
 74
    0
 49
-3.175
 74
    0
 49
0
 74
    0
 49
-3.175
 74
    0
 49
0
 74
    0
 49
-3.175
 74
    0
  0
LTYPE
  5
41
330
5
100
AcDbSymbolTableRecord
100
AcDbLinetypeTableRecord
  2
DIVIDEX2
 70
    0
  3
Divide (2x) ________  .  .  ________  .  .  _
 72
   65
 73
    6
 40
63.5
 49
25.4
 74
    0
 49
-12.7
 74
    0
 49
0
 74
    0
 49
-12.7
 74
    0
 49
0
 74
    0
 49
-12.7
 74
    0
  0
LTYPE
  5
42
330
5
100
AcDbSymbolTableRecord
100
AcDbLinetypeTableRecord
  2
BORDER
 70
    0
  3
Border __ __ . __ __ . __ __ . __ __ . __ __ .
 72
   65
 73
    6
 40
44.45
 49
12.7
 74
    0
 49
-6.35
 74
    0
 49
12.7
 74
    0
 49
-6.35
 74
    0
 49
0
 74
    0
 49
-6.35
 74
    0
  0
LTYPE
  5
43
330
5
100
AcDbSymbolTableRecord
100
AcDbLinetypeTableRecord
  2
BORDERTINY
 70
    0
  3
Border (.15x) __.__.__.__.__.__.__.__.__.__.__.
 72
   65
 73
    6
 40
6.6675
 49
1.905
 74
    0
 49
-0.9525
 74
    0
 49
1.905
 74
    0
 49
-0.9525
 74
    0
 49
0
 74
    0
 49
-0.9525
 74
    0
  0
LTYPE
  5
44
330
5
100
AcDbSymbolTableRecord
100
AcDbLinetypeTableRecord
  2
BORDER2
 70
    0
  3
Border (.5x) __.__.__.__.__.__.__.__.__.__.__.
 72
   65
 73
    6
 40
22.225
 49
6.35
 74
    0
 49
-3.175
 74
    0
 49
6.35
 74
    0
 49
-3.175
 74
    0
 49
0
 74
    0
 49
-3.175
 74
    0
  0
LTYPE
  5
45
330
5
100
AcDbSymbolTableRecord
100
AcDbLinetypeTableRecord
  2
BORDERX2
 70
    0
  3
Border (2x) ____  ____  .  ____  ____  .  ___
 72
   65
 73
    6
 40
88.89999999999999
 49
25.4
 74
    0
 49
-12.7
 74
    0
 49
25.4
 74
    0
 49
-12.7
 74
    0
 49
0
 74
    0
 49
-12.7
 74
    0
  0
LTYPE
  5
46
330
5
100
AcDbSymbolTableRecord
100
AcDbLinetypeTableRecord
  2
CENTER
 70
    0
  3
Center ____ _ ____ _ ____ _ ____ _ ____ _ ____
 72
   65
 73
    4
 40
50.8
 49
31.75
 74
    0
 49
-6.35
 74
    0
 49
6.35
 74
    0
 49
-6.35
 74
    0
  0
LTYPE
  5
47
330
5
100
AcDbSymbolTableRecord
100
AcDbLinetypeTableRecord
  2
CENTERTINY
 70
    0
  3
Center (.15x) ___ _ ___ _ ___ _ ___ _ ___ _ ___
 72
   65
 73
    4
 40
7.62
 49
4.7625
 74
    0
 49
-0.9525
 74
    0
 49
0.9525
 74
    0
 49
-0.9525
 74
    0
  0
LTYPE
  5
48
330
5
100
AcDbSymbolTableRecord
100
AcDbLinetypeTableRecord
  2
CENTER2
 70
    0
  3
Center (.5x) ___ _ ___ _ ___ _ ___ _ ___ _ ___
 72
   65
 73
    4
 40
28.575
 49
19.05
 74
    0
 49
-3.175
 74
    0
 49
3.175
 74
    0
 49
-3.175
 74
    0
  0
LTYPE
  5
49
330
5
100
AcDbSymbolTableRecord
100
AcDbLinetypeTableRecord
  2
CENTERX2
 70
    0
  3
Center (2x) ________  __  ________  __  _____
 72
   65
 73
    4
 40
101.6
 49
63.5
 74
    0
 49
-12.7
 74
    0
 49
12.7
 74
    0
 49
-12.7
 74
    0
  0
ENDTAB
  0
TABLE
  2
LAYER
  5
2
330
0
100
AcDbSymbolTable
 70
    1
  0
LAYER
  5
10
330
2
100
AcDbSymbolTableRecord
100
AcDbLayerTableRecord
  2
0
 70
    0
 62
    7
  6
CONTINUOUS
370
   -3
390
F
  0
ENDTAB
  0
TABLE
  2
STYLE
  5
3
330
0
100
AcDbSymbolTable
 70
    3
  0
STYLE
  5
4A
330
2
100
AcDbSymbolTableRecord
100
AcDbTextStyleTableRecord
  2
Standard
 70
    0
 40
0
 41
1
 50
0
 71
    0
 42
1
  3
txt
  4

  0
ENDTAB
  0
TABLE
  2
VIEW
  5
6
330
0
100
AcDbSymbolTable
 70
    0
  0
ENDTAB
  0
TABLE
  2
UCS
  5
7
330
0
100
AcDbSymbolTable
 70
    0
  0
ENDTAB
  0
TABLE
  2
APPID
  5
9
330
0
100
AcDbSymbolTable
 70
    1
  0
APPID
  5
12
330
9
100
AcDbSymbolTableRecord
100
AcDbRegAppTableRecord
  2
ACAD
 70
    0
  0
APPID
  5
4B
330
9
100
AcDbSymbolTableRecord
100
AcDbRegAppTableRecord
  2
LibreCad
 70
    0
  0
ENDTAB
  0
TABLE
  2
DIMSTYLE
  5
A
330
0
100
AcDbSymbolTable
 70
    1
100
AcDbDimStyleTable
 71
    1
  0
DIMSTYLE
105
4C
330
A
100
AcDbSymbolTableRecord
100
AcDbDimStyleTableRecord
  2
Standard
 70
    0
 40
1
 41
2.5
 42
0.625
 43
0.38
 44
1.25
 45
0
 46
0
 47
0
 48
0
 49
1
140
2.5
141
0.09
142
2.5
143
25.4
144
1
145
0
146
1
147
0.625
148
0
 71
    0
 72
    0
 73
    0
 74
    1
 75
    0
 76
    0
 77
    0
 78
    1
 79
    0
170
    0
171
    2
172
    0
173
    0
174
    0
175
    0
176
    0
177
    0
178
    0
179
    0
271
    2
272
    4
273
    2
274
    2
275
    0
276
    0
277
    2
278
    0
279
    0
280
    0
281
    0
282
    0
283
    1
284
    0
285
    0
286
    0
288
    0
289
    3
340
standard
341

371
   -2
372
   -2
  0
ENDTAB
  0
TABLE
  2
BLOCK_RECORD
  5
1
330
0
100
AcDbSymbolTable
 70
    2
  0
BLOCK_RECORD
  5
1F
330
1
100
AcDbSymbolTableRecord
100
AcDbBlockTableRecord
  2
*Model_Space
 70
    0
280
    1
281
    0
  0
BLOCK_RECORD
  5
1E
330
1
100
AcDbSymbolTableRecord
100
AcDbBlockTableRecord
  2
*Paper_Space
 70
    0
280
    1
281
    0
  0
ENDTAB
  0
ENDSEC
  0
SECTION
  2
BLOCKS
  0
BLOCK
  5
20
330
1F
100
AcDbEntity
  8
0
100
AcDbBlockBegin
  2
*Model_Space
 70
    0
 10
0
 20
0
 30
0
  3
*Model_Space
  1

  0
ENDBLK
  5
21
330
1F
100
AcDbEntity
  8
0
100
AcDbBlockEnd
  0
BLOCK
  5
1C
330
1B
100
AcDbEntity
  8
0
100
AcDbBlockBegin
  2
*Paper_Space
 70
    0
 10
0
 20
0
 30
0
  3
*Paper_Space
  1

  0
ENDBLK
  5
1D
330
1F
100
AcDbEntity
  8
0
100
AcDbBlockEnd
  0
ENDSEC
  0
SECTION
  2
ENTITIES
  0
CIRCLE
  5
4D
100
AcDbEntity
  8
0
  6
ByLayer
 62
  256
370
   -1
100
AcDbCircle
 10
42.0750000000001
 20
98.39291749569864
 40
1.200000000000001
  0
CIRCLE
  5
4E
100
AcDbEntity
  8
0
  6
ByLayer
 62
  256
370
   -1
100
AcDbCircle
 10
156.3750000000001
 20
98.39291749569868
 40
1.200000000000001
  0
CIRCLE
  5
4F
100
AcDbEntity
  8
0
  6
ByLayer
 62
  256
370
   -1
100
AcDbCircle
 10
289.7250000000001
 20
98.39291749569867
 40
1.200000000000018
  0
CIRCLE
  5
50
100
AcDbEntity
  8
0
  6
ByLayer
 62
  256
370
   -1
100
AcDbCircle
 10
156.3750000000001
 20
-2.307082504301098
 40
1.200000000000001
  0
LWPOLYLINE
  5
51
100
AcDbEntity
  8
0
  6
ByLayer
 62
  256
370
   -1
100
AcDbPolyline
 90
    8
 70
    1
 43
0
 10
134.3000000000001
 20
93.14291749569897
 10
121.3000000000001
 20
93.14291749569897
 42
0.4142135623731117
 10
120.8000000000001
 20
92.64291749569894
 10
120.8000000000001
 20
79.64291749569895
 42
0.4142135623731117
 10
121.3000000000001
 20
79.14291749569892
 10
134.3000000000001
 20
79.14291749569895
 42
0.4142135623731034
 10
134.8000000000001
 20
79.64291749569897
 10
134.8000000000001
 20
92.64291749569897
 42
0.414213562373095
  0
LWPOLYLINE
  5
52
100
AcDbEntity
  8
0
  6
ByLayer
 62
  256
370
   -1
100
AcDbPolyline
 90
    8
 70
    1
 43
0
 10
153.3500000000001
 20
93.14291749569897
 10
140.3500000000001
 20
93.14291749569897
 42
0.4142135623731117
 10
139.8500000000001
 20
92.64291749569894
 10
139.8500000000001
 20
79.64291749569894
 42
0.414213562373095
 10
140.3500000000001
 20
79.14291749569894
 10
153.3500000000001
 20
79.14291749569894
 42
0.4142135623731117
 10
153.8500000000001
 20
79.64291749569897
 10
153.8500000000001
 20
92.64291749569897
 42
0.414213562373095
  0
LWPOLYLINE
  5
53
100
AcDbEntity
  8
0
  6
ByLayer
 62
  256
370
   -1
100
AcDbPolyline
 90
    8
 70
    1
 43
0
 10
286.7000000000001
 20
16.94291749569891
 10
273.7000000000001
 20
16.94291749569891
 42
0.4142135623730971
 10
273.2000000000001
 20
16.44291749569891
 10
273.2000000000001
 20
3.442917495698917
 42
0.4142135623731179
 10
273.7000000000001
 20
2.942917495698874
 10
286.7000000000001
 20
2.942917495698908
 42
0.4142135623731086
 10
287.2000000000001
 20
3.442917495698917
 10
287.2000000000002
 20
16.44291749569891
 42
0.4142135623731137
  0
LWPOLYLINE
  5
54
100
AcDbEntity
  8
0
  6
ByLayer
 62
  256
370
   -1
100
AcDbPolyline
 90
    8
 70
    1
 43
0
 10
260.5062500000001
 20
35.9929174956989
 10
247.5062500000001
 20
35.99291749569894
 42
0.4142135623731075
 10
247.0062500000001
 20
35.49291749569893
 10
247.0062500000001
 20
22.49291749569892
 42
0.4142135623731054
 10
247.5062500000001
 20
21.99291749569891
 10
260.5062500000001
 20
21.99291749569891
 42
0.4142135623730992
 10
261.0062500000001
 20
22.49291749569892
 10
261.0062500000001
 20
35.49291749569893
 42
0.4142135623731075
  0
LWPOLYLINE
  5
55
100
AcDbEntity
  8
0
  6
ByLayer
 62
  256
370
   -1
100
AcDbPolyline
 90
    8
 70
    1
 43
0
 10
229.5500000000001
 20
93.14291749569895
 10
216.5500000000001
 20
93.14291749569895
 42
0.4142135623731117
 10
216.0500000000001
 20
92.64291749569892
 10
216.0500000000001
 20
79.64291749569894
 42
0.4142135623731117
 10
216.5500000000001
 20
79.14291749569891
 10
229.5500000000001
 20
79.14291749569894
 42
0.4142135623731034
 10
230.0500000000001
 20
79.64291749569895
 10
230.0500000000001
 20
92.64291749569895
 42
0.414213562373095
  0
LWPOLYLINE
  5
56
100
AcDbEntity
  8
0
  6
ByLayer
 62
  256
370
   -1
100
AcDbPolyline
 90
    8
 70
    1
 43
0
 10
27.14375000000009
 20
55.04291749569896
 10
9.381250000000087
 20
55.04291749569895
 42
0.4142135623730961
 10
8.881250000000097
 20
54.54291749569897
 10
8.881250000000085
 20
41.54291749569896
 42
0.4142135623731023
 10
9.381250000000085
 20
41.04291749569896
 10
27.14375000000008
 20
41.04291749569892
 42
0.4142135623730971
 10
27.64375000000008
 20
41.54291749569894
 10
27.64375000000009
 20
54.54291749569897
 42
0.4142135623730929
  0
LWPOLYLINE
  5
57
100
AcDbEntity
  8
0
  6
ByLayer
 62
  256
370
   -1
100
AcDbPolyline
 90
    8
 70
    1
 43
0
 10
115.2500000000001
 20
93.14291749569897
 10
102.2500000000001
 20
93.14291749569894
 42
0.4142135623731034
 10
101.7500000000001
 20
92.64291749569894
 10
101.7500000000001
 20
79.64291749569895
 42
0.4142135623731117
 10
102.2500000000001
 20
79.14291749569894
 10
115.2500000000001
 20
79.14291749569895
 42
0.4142135623731034
 10
115.7500000000001
 20
79.64291749569897
 10
115.7500000000001
 20
92.64291749569897
 42
0.414213562373095
  0
LWPOLYLINE
  5
58
100
AcDbEntity
  8
0
  6
ByLayer
 62
  256
370
   -1
100
AcDbPolyline
 90
    8
 70
    1
 43
0
 10
58.1000000000001
 20
93.14291749569897
 10
45.10000000000009
 20
93.14291749569897
 42
0.4142135623731034
 10
44.60000000000009
 20
92.64291749569895
 10
44.60000000000009
 20
79.64291749569897
 42
0.4142135623731117
 10
45.10000000000009
 20
79.14291749569894
 10
58.10000000000009
 20
79.14291749569897
 42
0.4142135623731034
 10
58.60000000000008
 20
79.64291749569897
 10
58.60000000000009
 20
92.64291749569897
 42
0.4142135623730909
  0
LWPOLYLINE
  5
59
100
AcDbEntity
  8
0
  6
ByLayer
 62
  256
370
   -1
100
AcDbPolyline
 90
    8
 70
    1
 43
0
 10
273.2000000000001
 20
35.49291749569892
 42
-0.4142135623730992
 10
273.7000000000001
 20
35.99291749569893
 10
286.7000000000001
 20
35.99291749569893
 42
-0.4142135623731159
 10
287.2000000000002
 20
35.49291749569892
 10
287.2000000000002
 20
22.49291749569893
 42
-0.4142135623731221
 10
286.7000000000001
 20
21.99291749569892
 10
273.7000000000001
 20
21.99291749569891
 42
-0.4142135623730971
 10
273.2000000000001
 20
22.49291749569892
  0
LWPOLYLINE
  5
5A
100
AcDbEntity
  8
0
  6
ByLayer
 62
  256
370
   -1
100
AcDbPolyline
 90
   22
 70
    1
 43
0
 10
180.0437500000001
 20
3.442917495698927
 42
-0.4142135623730492
 10
180.5437500000001
 20
3.942917495698915
 10
187.9817500000001
 20
3.942917495698898
 42
0.4142135623730981
 10
188.4817500000001
 20
4.442917495698907
 10
188.4817500000001
 20
18.44291749569891
 42
0.4142135623730867
 10
187.9817500000001
 20
18.9429174956989
 10
177.2192500000001
 20
18.94291749569894
 42
0.4142135623730971
 10
176.7192500000001
 20
18.44291749569893
 10
176.7192500000001
 20
17.44291749569891
 42
-0.4142135623730264
 10
176.2192500000001
 20
16.94291749569891
 10
165.1057500000001
 20
16.94291749569889
 42
-0.4142135623730097
 10
164.6057500000001
 20
17.44291749569891
 10
164.6057500000001
 20
18.44291749569891
 42
0.4142135623731075
 10
164.1057500000001
 20
18.94291749569894
 10
153.3432500000001
 20
18.94291749569894
 42
0.4142135623731075
 10
152.8432500000001
 20
18.44291749569892
 10
152.8432500000001
 20
4.44291749569891
 42
0.4142135623730971
 10
153.3432500000001
 20
3.942917495698903
 10
160.7812500000001
 20
3.942917495698882
 42
-0.4142135623731148
 10
161.28125
 20
3.442917495698894
 42
0.4142135623731054
 10
161.7812500000001
 20
2.942917495698887
 10
179.5437500000001
 20
2.942917495698921
 42
0.4142135623731319
  0
LWPOLYLINE
  5
5B
100
AcDbEntity
  8
0
  6
ByLayer
 62
  256
370
   -1
100
AcDbPolyline
 90
    8
 70
    1
 43
0
 10
239.0750000000001
 20
74.09291749569891
 10
226.0750000000001
 20
74.09291749569891
 42
0.4142135623730867
 10
225.5750000000001
 20
73.59291749569891
 10
225.5750000000001
 20
60.59291749569891
 42
0.4142135623730867
 10
226.0750000000001
 20
60.09291749569891
 10
239.0750000000001
 20
60.09291749569891
 42
0.4142135623730909
 10
239.5750000000001
 20
60.59291749569891
 10
239.5750000000001
 20
73.59291749569891
 42
0.414213562373095
  0
LWPOLYLINE
  5
5C
100
AcDbEntity
  8
0
  6
ByLayer
 62
  256
370
   -1
100
AcDbPolyline
 90
    8
 70
    1
 43
0
 10
77.65000000000009
 20
79.64291749569895
 10
77.65000000000009
 20
92.64291749569897
 42
0.414213562373095
 10
77.15000000000009
 20
93.14291749569897
 10
64.15000000000009
 20
93.14291749569894
 42
0.4142135623731034
 10
63.6500000000001
 20
92.64291749569894
 10
63.6500000000001
 20
79.64291749569895
 42
0.4142135623731117
 10
64.15000000000009
 20
79.14291749569892
 10
77.15000000000009
 20
79.14291749569894
 42
0.4142135623731034
  0
LWPOLYLINE
  5
5D
100
AcDbEntity
  8
0
  6
ByLayer
 62
  256
370
   -1
100
AcDbPolyline
 90
    8
 70
    1
 43
0
 10
201.4750000000001
 20
60.59291749569891
 10
201.4750000000001
 20
73.59291749569891
 42
0.4142135623730784
 10
200.9750000000001
 20
74.09291749569888
 10
187.9750000000001
 20
74.09291749569891
 42
0.4142135623731034
 10
187.4750000000001
 20
73.59291749569891
 10
187.4750000000001
 20
60.59291749569891
 42
0.4142135623730576
 10
187.9750000000001
 20
60.09291749569892
 10
200.9750000000001
 20
60.09291749569893
 42
0.4142135623730784
  0
LWPOLYLINE
  5
5E
100
AcDbEntity
  8
0
  6
ByLayer
 62
  256
370
   -1
100
AcDbPolyline
 90
    8
 70
    1
 43
0
 10
220.0250000000001
 20
74.09291749569888
 10
207.0250000000001
 20
74.09291749569891
 42
0.4142135623731034
 10
206.5250000000001
 20
73.59291749569891
 10
206.5250000000001
 20
60.5929174956989
 42
0.4142135623730576
 10
207.0250000000001
 20
60.09291749569891
 10
220.0250000000001
 20
60.09291749569893
 42
0.414213562373095
 10
220.5250000000001
 20
60.59291749569892
 10
220.5250000000001
 20
73.59291749569891
 42
0.414213562373095
  0
LWPOLYLINE
  5
5F
100
AcDbEntity
  8
0
  6
ByLayer
 62
  256
370
   -1
100
AcDbPolyline
 90
    8
 70
    1
 43
0
 10
211.2875000000001
 20
54.54291749569894
 42
-0.4142135623730992
 10
211.7875000000001
 20
55.04291749569895
 10
224.7875000000001
 20
55.04291749569895
 42
-0.4142135623730992
 10
225.2875000000001
 20
54.54291749569894
 10
225.2875000000001
 20
41.54291749569893
 42
-0.4142135623731075
 10
224.7875000000001
 20
41.0429174956989
 10
211.7875000000001
 20
41.04291749569894
 42
-0.4142135623731075
 10
211.2875000000001
 20
41.54291749569893
  0
LWPOLYLINE
  5
60
100
AcDbEntity
  8
0
  6
ByLayer
 62
  256
370
   -1
100
AcDbPolyline
 90
    8
 70
    1
 43
0
 10
167.6375000000001
 20
55.04291749569895
 10
154.6375000000001
 20
55.04291749569893
 42
0.4142135623730825
 10
154.1375000000001
 20
54.54291749569894
 10
154.1375000000001
 20
41.54291749569894
 42
0.4142135623731034
 10
154.6375000000001
 20
41.04291749569892
 10
167.6375000000001
 20
41.04291749569891
 42
0.4142135623731075
 10
168.1375000000001
 20
41.54291749569894
 10
168.1375000000001
 20
54.54291749569894
 42
0.4142135623730992
  0
LWPOLYLINE
  5
61
100
AcDbEntity
  8
0
  6
ByLayer
 62
  256
370
   -1
100
AcDbPolyline
 90
    8
 70
    1
 43
0
 10
220.8125000000001
 20
35.49291749569893
 42
-0.4142135623730992
 10
221.3125000000001
 20
35.99291749569894
 10
234.3125000000001
 20
35.99291749569894
 42
-0.4142135623731075
 10
234.8125000000001
 20
35.49291749569893
 10
234.8125000000001
 20
22.49291749569892
 42
-0.4142135623731075
 10
234.3125000000001
 20
21.99291749569891
 10
221.3125000000001
 20
21.99291749569891
 42
-0.4142135623730971
 10
220.8125000000001
 20
22.49291749569892
  0
LWPOLYLINE
  5
62
100
AcDbEntity
  8
0
  6
ByLayer
 62
  256
370
   -1
100
AcDbPolyline
 90
    8
 70
    1
 43
0
 10
124.7750000000001
 20
74.09291749569893
 10
111.7750000000001
 20
74.09291749569893
 42
0.414213562373095
 10
111.2750000000001
 20
73.59291749569893
 10
111.2750000000001
 20
60.59291749569891
 42
0.4142135623730867
 10
111.7750000000001
 20
60.09291749569893
 10
124.7750000000001
 20
60.09291749569894
 42
0.4142135623731075
 10
125.2750000000001
 20
60.59291749569893
 10
125.2750000000001
 20
73.59291749569893
 42
0.4142135623731034
  0
LWPOLYLINE
  5
63
100
AcDbEntity
  8
0
  6
ByLayer
 62
  256
370
   -1
100
AcDbPolyline
 90
    8
 70
    1
 43
0
 10
72.38750000000007
 20
55.04291749569897
 10
59.3875000000001
 20
55.04291749569897
 42
0.4142135623730909
 10
58.8875000000001
 20
54.54291749569896
 10
58.8875000000001
 20
41.54291749569895
 42
0.4142135623731034
 10
59.3875000000001
 20
41.04291749569895
 10
72.38750000000007
 20
41.04291749569892
 42
0.4142135623730992
 10
72.88750000000007
 20
41.54291749569893
 10
72.88750000000007
 20
54.54291749569896
 42
0.4142135623730992
  0
LWPOLYLINE
  5
64
100
AcDbEntity
  8
0
  6
ByLayer
 62
  256
370
   -1
100
AcDbPolyline
 90
    8
 70
    1
 43
0
 10
258.1250000000001
 20
74.09291749569891
 10
245.1250000000001
 20
74.09291749569891
 42
0.4142135623730867
 10
244.6250000000001
 20
73.59291749569891
 10
244.6250000000001
 20
60.59291749569891
 42
0.4142135623730867
 10
245.1250000000001
 20
60.09291749569891
 10
258.1250000000001
 20
60.09291749569891
 42
0.4142135623731034
 10
258.6250000000001
 20
60.59291749569892
 10
258.6250000000001
 20
73.59291749569891
 42
0.414213562373095
  0
LWPOLYLINE
  5
65
100
AcDbEntity
  8
0
  6
ByLayer
 62
  256
370
   -1
100
AcDbPolyline
 90
    8
 70
    1
 43
0
 10
32.69375000000008
 20
16.44291749569894
 42
-0.4142135623730909
 10
33.19375000000008
 20
16.94291749569895
 10
46.19375000000008
 20
16.94291749569894
 42
-0.414213562373095
 10
46.69375000000008
 20
16.44291749569894
 10
46.69375000000005
 20
3.44291749569891
 42
-0.4142135623730961
 10
46.19375000000008
 20
2.942917495698937
 10
33.19375000000008
 20
2.942917495698913
 42
-0.4142135623731148
 10
32.69375000000008
 20
3.442917495698945
  0
LWPOLYLINE
  5
66
100
AcDbEntity
  8
0
  6
ByLayer
 62
  256
370
   -1
100
AcDbPolyline
 90
    8
 70
    1
 43
0
 10
110.4875000000001
 20
55.04291749569896
 10
97.48750000000008
 20
55.04291749569894
 42
0.4142135623730867
 10
96.98750000000011
 20
54.54291749569895
 10
96.98750000000007
 20
41.54291749569892
 42
0.414213562373095
 10
97.48750000000008
 20
41.04291749569893
 10
110.4875000000001
 20
41.04291749569892
 42
0.4142135623731075
 10
110.9875000000001
 20
41.54291749569894
 10
110.9875000000001
 20
54.54291749569895
 42
0.4142135623730992
  0
LWPOLYLINE
  5
67
100
AcDbEntity
  8
0
  6
ByLayer
 62
  256
370
   -1
100
AcDbPolyline
 90
    8
 70
    1
 43
0
 10
70.00625000000008
 20
16.94291749569894
 10
57.00625000000009
 20
16.94291749569894
 42
0.4142135623730929
 10
56.50625000000009
 20
16.44291749569893
 10
56.50625000000009
 20
3.442917495698907
 42
0.4142135623730929
 10
57.00625000000009
 20
2.9429174956989
 10
70.00625000000008
 20
2.942917495698934
 42
0.4142135623731169
 10
70.50625000000005
 20
3.442917495698943
 10
70.50625000000008
 20
16.44291749569894
 42
0.4142135623730971
  0
LWPOLYLINE
  5
68
100
AcDbEntity
  8
0
  6
ByLayer
 62
  256
370
   -1
100
AcDbPolyline
 90
    8
 70
    1
 43
0
 10
243.8375000000001
 20
55.04291749569894
 10
230.8375000000001
 20
55.04291749569892
 42
0.4142135623730909
 10
230.3375000000001
 20
54.54291749569894
 10
230.3375000000001
 20
41.54291749569891
 42
0.4142135623730909
 10
230.8375000000001
 20
41.04291749569892
 10
243.8375000000001
 20
41.04291749569889
 42
0.4142135623730992
 10
244.3375000000001
 20
41.54291749569891
 10
244.3375000000001
 20
54.54291749569894
 42
0.4142135623730992
  0
LWPOLYLINE
  5
69
100
AcDbEntity
  8
0
  6
ByLayer
 62
  256
370
   -1
100
AcDbPolyline
 90
    8
 70
    1
 43
0
 10
292.2500000000001
 20
54.54291749569893
 42
-0.4142135623730992
 10
292.7500000000001
 20
55.04291749569894
 10
305.7500000000001
 20
55.04291749569894
 42
-0.4142135623730992
 10
306.2500000000001
 20
54.54291749569893
 10
306.2500000000001
 20
41.54291749569892
 42
-0.4142135623731075
 10
305.7500000000001
 20
41.04291749569889
 10
292.7500000000001
 20
41.04291749569889
 42
-0.4142135623730992
 10
292.2500000000001
 20
41.5429174956989
  0
LWPOLYLINE
  5
6A
100
AcDbEntity
  8
0
  6
ByLayer
 62
  256
370
   -1
100
AcDbPolyline
 90
    8
 70
    1
 43
0
 10
22.88125000000008
 20
3.442917495698913
 10
22.88125000000008
 20
16.44291749569894
 42
0.414213562373095
 10
22.38125000000008
 20
16.94291749569895
 10
9.381250000000081
 20
16.94291749569893
 42
0.4142135623730981
 10
8.881250000000092
 20
16.44291749569894
 10
8.88125000000008
 20
3.442917495698913
 42
0.4142135623730948
 10
9.38125000000008
 20
2.942917495698913
 10
22.38125000000008
 20
2.94291749569894
 42
0.4142135623730961
  0
LWPOLYLINE
  5
6B
100
AcDbEntity
  8
0
  6
ByLayer
 62
  256
370
   -1
100
AcDbPolyline
 90
    8
 70
    1
 43
0
 10
81.91250000000008
 20
35.99291749569896
 10
68.91250000000008
 20
35.99291749569896
 42
0.4142135623730992
 10
68.41250000000008
 20
35.49291749569895
 10
68.41250000000008
 20
22.49291749569894
 42
0.414213562373095
 10
68.91250000000008
 20
21.99291749569894
 10
81.91250000000008
 20
21.99291749569894
 42
0.414213562373095
 10
82.41250000000008
 20
22.49291749569894
 10
82.41250000000008
 20
35.49291749569895
 42
0.4142135623730909
  0
LWPOLYLINE
  5
6C
100
AcDbEntity
  8
0
  6
ByLayer
 62
  256
370
   -1
100
AcDbPolyline
 90
    8
 70
    1
 43
0
 10
177.1625000000001
 20
35.99291749569895
 10
164.1625000000001
 20
35.99291749569895
 42
0.4142135623730992
 10
163.6625000000001
 20
35.49291749569893
 10
163.6625000000001
 20
22.49291749569893
 42
0.4142135623730971
 10
164.1625000000001
 20
21.99291749569892
 10
177.1625000000001
 20
21.99291749569893
 42
0.4142135623731054
 10
177.6625000000001
 20
22.49291749569895
 10
177.6625000000001
 20
35.49291749569893
 42
0.4142135623730909
  0
LWPOLYLINE
  5
6D
100
AcDbEntity
  8
0
  6
ByLayer
 62
  256
370
   -1
100
AcDbPolyline
 90
    8
 70
    1
 43
0
 10
248.6000000000001
 20
93.14291749569895
 10
235.6000000000001
 20
93.14291749569895
 42
0.4142135623731117
 10
235.1000000000001
 20
92.64291749569892
 10
235.1000000000001
 20
79.64291749569892
 42
0.414213562373095
 10
235.6000000000001
 20
79.14291749569892
 10
248.6000000000001
 20
79.14291749569892
 42
0.4142135623731034
 10
249.1000000000001
 20
79.64291749569894
 10
249.1000000000001
 20
92.64291749569895
 42
0.414213562373095
  0
LWPOLYLINE
  5
6E
100
AcDbEntity
  8
0
  6
ByLayer
 62
  256
370
   -1
100
AcDbPolyline
 90
    8
 70
    1
 43
0
 10
215.2625000000001
 20
35.99291749569894
 10
202.2625000000001
 20
35.99291749569892
 42
0.4142135623730825
 10
201.7625000000001
 20
35.49291749569893
 10
201.7625000000001
 20
22.49291749569894
 42
0.4142135623731054
 10
202.2625000000001
 20
21.99291749569895
 10
215.2625000000001
 20
21.99291749569893
 42
0.4142135623731137
 10
215.7625000000001
 20
22.49291749569894
 10
215.7625000000001
 20
35.49291749569893
 42
0.4142135623731075
  0
LWPOLYLINE
  5
6F
100
AcDbEntity
  8
0
  6
ByLayer
 62
  256
370
   -1
100
AcDbPolyline
 90
    8
 70
    1
 43
0
 10
182.4250000000001
 20
60.59291749569893
 10
182.4250000000001
 20
73.59291749569891
 42
0.414213562373095
 10
181.9250000000001
 20
74.09291749569891
 10
168.9250000000001
 20
74.09291749569893
 42
0.4142135623731034
 10
168.425
 20
73.59291749569893
 10
168.4250000000001
 20
60.59291749569891
 42
0.4142135623730576
 10
168.9250000000001
 20
60.09291749569892
 10
181.9250000000001
 20
60.09291749569891
 42
0.4142135623731034
  0
LWPOLYLINE
  5
70
100
AcDbEntity
  8
0
  6
ByLayer
 62
  256
370
   -1
100
AcDbPolyline
 90
    8
 70
    1
 43
0
 10
149.0875000000001
 20
41.54291749569894
 10
149.0875000000001
 20
54.54291749569894
 42
0.4142135623730992
 10
148.5875000000001
 20
55.04291749569896
 10
135.5875000000001
 20
55.04291749569894
 42
0.4142135623730992
 10
135.0875000000001
 20
54.54291749569895
 10
135.0875000000001
 20
41.54291749569894
 42
0.4142135623731034
 10
135.5875000000001
 20
41.04291749569893
 10
148.5875000000001
 20
41.04291749569891
 42
0.4142135623731075
  0
LWPOLYLINE
  5
71
100
AcDbEntity
  8
0
  6
ByLayer
 62
  256
370
   -1
100
AcDbPolyline
 90
    8
 70
    1
 43
0
 10
54.12500000000009
 20
73.59291749569894
 42
-0.4142135623730909
 10
54.62500000000009
 20
74.09291749569896
 10
67.6250000000001
 20
74.09291749569893
 42
-0.414213562373095
 10
68.1250000000001
 20
73.59291749569893
 10
68.1250000000001
 20
60.59291749569894
 42
-0.4142135623731075
 10
67.6250000000001
 20
60.09291749569895
 10
54.62500000000009
 20
60.09291749569893
 42
-0.4142135623730867
 10
54.12500000000009
 20
60.59291749569892
  0
LWPOLYLINE
  5
72
100
AcDbEntity
  8
0
  6
ByLayer
 62
  256
370
   -1
100
AcDbPolyline
 90
    8
 70
    1
 43
0
 10
130.3250000000001
 20
73.59291749569893
 42
-0.414213562373095
 10
130.8250000000001
 20
74.09291749569893
 10
143.8250000000001
 20
74.09291749569893
 42
-0.414213562373095
 10
144.3250000000001
 20
73.59291749569893
 10
144.3250000000001
 20
60.59291749569893
 42
-0.414213562373095
 10
143.8250000000001
 20
60.09291749569894
 10
130.8250000000001
 20
60.09291749569891
 42
-0.4142135623730909
 10
130.3250000000001
 20
60.59291749569891
  0
LWPOLYLINE
  5
73
100
AcDbEntity
  8
0
  6
ByLayer
 62
  256
370
   -1
100
AcDbPolyline
 90
    8
 70
    1
 43
0
 10
305.7500000000001
 20
93.14291749569894
 10
292.7500000000001
 20
93.14291749569894
 42
0.4142135623731117
 10
292.2500000000001
 20
92.64291749569891
 10
292.2500000000001
 20
79.64291749569891
 42
0.414213562373095
 10
292.7500000000001
 20
79.14291749569891
 10
305.7500000000001
 20
79.14291749569891
 42
0.4142135623731117
 10
306.2500000000001
 20
79.64291749569894
 10
306.2500000000001
 20
92.64291749569894
 42
0.414213562373095
  0
LWPOLYLINE
  5
74
100
AcDbEntity
  8
0
  6
ByLayer
 62
  256
370
   -1
100
AcDbPolyline
 90
    8
 70
    1
 43
0
 10
268.1500000000001
 20
3.442917495698919
 10
268.1500000000001
 20
16.44291749569891
 42
0.4142135623730971
 10
267.6500000000001
 20
16.94291749569892
 10
254.6500000000001
 20
16.9429174956989
 42
0.4142135623730929
 10
254.1500000000001
 20
16.44291749569891
 10
254.1500000000001
 20
3.442917495698883
 42
0.4142135623730971
 10
254.6500000000001
 20
2.942917495698876
 10
267.6500000000001
 20
2.942917495698874
 42
0.414213562373119
  0
LWPOLYLINE
  5
75
100
AcDbEntity
  8
0
  6
ByLayer
 62
  256
370
   -1
100
AcDbPolyline
 90
    8
 70
    1
 43
0
 10
236.6937500000001
 20
16.94291749569892
 10
223.6937500000001
 20
16.9429174956989
 42
0.4142135623730929
 10
223.1937500000001
 20
16.44291749569891
 10
223.1937500000001
 20
3.442917495698922
 42
0.4142135623731179
 10
223.6937500000001
 20
2.94291749569888
 10
236.6937500000001
 20
2.942917495698914
 42
0.4142135623731086
 10
237.1937500000001
 20
3.442917495698923
 10
237.1937500000001
 20
16.44291749569891
 42
0.4142135623730888
  0
LWPOLYLINE
  5
76
100
AcDbEntity
  8
0
  6
ByLayer
 62
  256
370
   -1
100
AcDbPolyline
 90
    8
 70
    1
 43
0
 10
212.8812500000001
 20
16.94291749569893
 10
199.8812500000001
 20
16.94291749569891
 42
0.4142135623730929
 10
199.3812500000001
 20
16.44291749569891
 10
199.3812500000001
 20
3.44291749569889
 42
0.4142135623730971
 10
199.8812500000001
 20
2.942917495698883
 10
212.8812500000001
 20
2.942917495698917
 42
0.4142135623731169
 10
213.3812500000001
 20
3.442917495698925
 10
213.3812500000001
 20
16.44291749569892
 42
0.4142135623730971
  0
LWPOLYLINE
  5
77
100
AcDbEntity
  8
0
  6
ByLayer
 62
  256
370
   -1
100
AcDbPolyline
 90
   24
 70
    1
 43
0
 10
254.7370000000001
 20
79.1429174956989
 42
-0.41421356237312
 10
255.2370000000001
 20
78.64291749569892
 10
255.2370000000001
 20
77.64291749569891
 42
0.414213562373095
 10
255.7370000000001
 20
77.14291749569891
 10
261.7370000000001
 20
77.14291749569892
 42
0.4142135623730867
 10
262.2370000000001
 20
77.64291749569891
 10
262.2370000000001
 20
78.64291749569892
 42
-0.414213562373095
 10
262.7370000000001
 20
79.14291749569892
 10
278.6130000000001
 20
79.1429174956989
 42
-0.4142135623731367
 10
279.1130000000001
 20
78.64291749569892
 10
279.1130000000001
 20
77.64291749569891
 42
0.414213562373095
 10
279.6130000000001
 20
77.14291749569891
 10
285.6130000000001
 20
77.14291749569892
 42
0.4142135623730867
 10
286.1130000000001
 20
77.64291749569891
 10
286.1130000000001
 20
78.64291749569892
 42
-0.414213562373095
 10
286.6130000000001
 20
79.14291749569892
 10
286.7000000000001
 20
79.14291749569892
 42
0.41421356237312
 10
287.2000000000002
 20
79.64291749569894
 10
287.2000000000002
 20
92.64291749569895
 42
0.4142135623731117
 10
286.7000000000001
 20
93.14291749569895
 10
254.6500000000001
 20
93.14291749569895
 42
0.4142135623731117
 10
254.1500000000001
 20
92.64291749569892
 10
254.1500000000001
 20
79.64291749569892
 42
0.414213562373095
 10
254.6500000000001
 20
79.14291749569892
  0
LWPOLYLINE
  5
78
100
AcDbEntity
  8
0
  6
ByLayer
 62
  256
370
   -1
100
AcDbPolyline
 90
    8
 70
    1
 43
0
 10
101.4625000000001
 20
22.49291749569894
 10
101.4625000000001
 20
35.49291749569894
 42
0.4142135623730909
 10
100.9625000000001
 20
35.99291749569895
 10
87.96250000000008
 20
35.99291749569893
 42
0.4142135623730867
 10
87.46250000000011
 20
35.49291749569894
 10
87.46250000000005
 20
22.49291749569894
 42
0.4142135623731013
 10
87.96250000000008
 20
21.99291749569893
 10
100.9625000000001
 20
21.99291749569894
 42
0.414213562373095
  0
LWPOLYLINE
  5
79
100
AcDbEntity
  8
0
  6
ByLayer
 62
  256
370
   -1
100
AcDbPolyline
 90
    8
 70
    1
 43
0
 10
139.0625000000001
 20
35.99291749569895
 10
126.0625000000001
 20
35.99291749569893
 42
0.4142135623730867
 10
125.5625000000001
 20
35.49291749569894
 10
125.5625000000001
 20
22.49291749569895
 42
0.4142135623731117
 10
126.0625000000001
 20
21.99291749569893
 10
139.0625000000001
 20
21.99291749569894
 42
0.4142135623731054
 10
139.5625000000001
 20
22.49291749569895
 10
139.5625000000001
 20
35.49291749569894
 42
0.4142135623730992
  0
LWPOLYLINE
  5
7A
100
AcDbEntity
  8
0
  6
ByLayer
 62
  256
370
   -1
100
AcDbPolyline
 90
    8
 70
    1
 43
0
 10
191.4500000000001
 20
93.14291749569895
 10
178.4500000000001
 20
93.14291749569895
 42
0.4142135623731117
 10
177.9500000000001
 20
92.64291749569892
 10
177.9500000000001
 20
79.64291749569892
 42
0.414213562373095
 10
178.4500000000001
 20
79.14291749569892
 10
191.4500000000001
 20
79.14291749569892
 42
0.4142135623731034
 10
191.9500000000001
 20
79.64291749569894
 10
191.9500000000001
 20
92.64291749569895
 42
0.414213562373095
  0
LWPOLYLINE
  5
7B
100
AcDbEntity
  8
0
  6
ByLayer
 62
  256
370
   -1
100
AcDbPolyline
 90
    8
 70
    1
 43
0
 10
63.3625000000001
 20
22.49291749569896
 10
63.36250000000008
 20
35.49291749569895
 42
0.414213562373095
 10
62.8625000000001
 20
35.99291749569896
 10
49.86250000000009
 20
35.99291749569893
 42
0.4142135623730909
 10
49.3625000000001
 20
35.49291749569895
 10
49.36250000000008
 20
22.49291749569895
 42
0.4142135623731075
 10
49.86250000000008
 20
21.99291749569893
 10
62.86250000000009
 20
21.99291749569893
 42
0.4142135623731117
  0
LWPOLYLINE
  5
7C
100
AcDbEntity
  8
0
  6
ByLayer
 62
  256
370
   -1
100
AcDbPolyline
 90
    8
 70
    1
 43
0
 10
129.5375000000001
 20
55.04291749569896
 10
116.5375000000001
 20
55.04291749569896
 42
0.4142135623731034
 10
116.0375000000001
 20
54.54291749569895
 10
116.0375000000001
 20
41.54291749569892
 42
0.414213562373095
 10
116.5375000000001
 20
41.04291749569893
 10
129.5375000000001
 20
41.04291749569892
 42
0.4142135623731075
 10
130.0375000000001
 20
41.54291749569894
 10
130.0375000000001
 20
54.54291749569895
 42
0.4142135623730992
  0
LWPOLYLINE
  5
7D
100
AcDbEntity
  8
0
  6
ByLayer
 62
  256
370
   -1
100
AcDbPolyline
 90
    8
 70
    1
 43
0
 10
158.1125000000001
 20
35.99291749569893
 10
145.1125000000001
 20
35.99291749569895
 42
0.4142135623730992
 10
144.6125000000001
 20
35.49291749569894
 10
144.6125000000001
 20
22.49291749569894
 42
0.4142135623731075
 10
145.1125000000001
 20
21.99291749569892
 10
158.1125000000001
 20
21.99291749569892
 42
0.4142135623731013
 10
158.6125000000001
 20
22.49291749569895
 10
158.6125000000001
 20
35.49291749569893
 42
0.4142135623730909
  0
LWPOLYLINE
  5
7E
100
AcDbEntity
  8
0
  6
ByLayer
 62
  256
370
   -1
100
AcDbPolyline
 90
    8
 70
    1
 43
0
 10
146.2062500000001
 20
16.94291749569893
 10
123.6812500000001
 20
16.94291749569893
 42
0.4142135623730971
 10
123.1812500000001
 20
16.44291749569893
 10
123.1812500000001
 20
3.442917495698899
 42
0.4142135623730971
 10
123.6812500000001
 20
2.942917495698892
 10
146.2062500000001
 20
2.942917495698925
 42
0.4142135623731169
 10
146.70625
 20
3.442917495698934
 10
146.7062500000001
 20
16.44291749569893
 42
0.4142135623730971
  0
LWPOLYLINE
  5
7F
100
AcDbEntity
  8
0
  6
ByLayer
 62
  256
370
   -1
100
AcDbPolyline
 90
    8
 70
    1
 43
0
 10
305.7500000000001
 20
74.0929174956989
 10
292.7500000000001
 20
74.0929174956989
 42
0.4142135623730784
 10
292.2500000000002
 20
73.5929174956989
 10
292.2500000000001
 20
60.59291749569889
 42
0.4142135623730701
 10
292.7500000000001
 20
60.09291749569891
 10
305.7500000000001
 20
60.09291749569892
 42
0.4142135623730867
 10
306.2500000000001
 20
60.5929174956989
 10
306.2500000000001
 20
73.5929174956989
 42
0.414213562373095
  0
LWPOLYLINE
  5
80
100
AcDbEntity
  8
0
  6
ByLayer
 62
  256
370
   -1
100
AcDbPolyline
 90
   22
 70
    1
 43
0
 10
89.34375000000009
 20
3.942917495698952
 42
-0.4142135623730732
 10
89.84375000000007
 20
3.442917495698939
 42
0.4142135623731221
 10
90.3437500000001
 20
2.942917495698896
 10
108.1062500000001
 20
2.94291749569893
 42
0.4142135623731111
 10
108.6062500000001
 20
3.442917495698936
 42
-0.4142135623730904
 10
109.1062500000001
 20
3.942917495698928
 10
116.5442500000001
 20
3.942917495698907
 42
0.4142135623730981
 10
117.0442500000001
 20
4.442917495698916
 10
117.0442500000001
 20
18.44291749569892
 42
0.4142135623731075
 10
116.5442500000001
 20
18.94291749569893
 10
105.7817500000001
 20
18.94291749569895
 42
0.4142135623731013
 10
105.2817500000001
 20
18.44291749569894
 10
105.2817500000001
 20
17.44291749569894
 42
-0.414213562373095
 10
104.7817500000001
 20
16.94291749569894
 10
93.66825000000011
 20
16.94291749569894
 42
-0.4142135623730659
 10
93.16825000000011
 20
17.44291749569894
 10
93.1682500000001
 20
18.44291749569894
 42
0.4142135623730971
 10
92.6682500000001
 20
18.94291749569895
 10
81.9057500000001
 20
18.94291749569895
 42
0.4142135623730971
 10
81.4057500000001
 20
18.44291749569894
 10
81.4057500000001
 20
4.442917495698919
 42
0.4142135623730971
 10
81.9057500000001
 20
3.942917495698911
  0
LWPOLYLINE
  5
81
100
AcDbEntity
  8
0
  6
ByLayer
 62
  256
370
   -1
100
AcDbPolyline
 90
    8
 70
    1
 43
0
 10
39.0500000000001
 20
93.14291749569898
 10
26.05000000000009
 20
93.14291749569898
 42
0.4142135623731075
 10
25.55000000000009
 20
92.64291749569895
 10
25.55000000000009
 20
79.64291749569895
 42
0.4142135623730929
 10
26.05000000000009
 20
79.14291749569895
 10
39.05000000000009
 20
79.14291749569898
 42
0.4142135623731034
 10
39.55000000000008
 20
79.64291749569898
 10
39.5500000000001
 20
92.64291749569898
 42
0.414213562373095
  0
LWPOLYLINE
  5
82
100
AcDbEntity
  8
0
  6
ByLayer
 62
  256
370
   -1
100
AcDbPolyline
 90
    8
 70
    1
 43
0
 10
120.5125000000001
 20
22.49291749569894
 10
120.5125000000001
 20
35.49291749569894
 42
0.4142135623730867
 10
120.0125000000001
 20
35.99291749569895
 10
107.0125000000001
 20
35.99291749569893
 42
0.4142135623730867
 10
106.5125000000001
 20
35.49291749569894
 10
106.5125000000001
 20
22.49291749569895
 42
0.4142135623731117
 10
107.0125000000001
 20
21.99291749569893
 10
120.0125000000001
 20
21.99291749569894
 42
0.4142135623730909
  0
LWPOLYLINE
  5
83
100
AcDbEntity
  8
0
  6
ByLayer
 62
  256
370
   -1
100
AcDbPolyline
 90
    8
 70
    1
 43
0
 10
20.00000000000009
 20
93.14291749569898
 10
7.000000000000091
 20
93.14291749569898
 42
0.4142135623731023
 10
6.500000000000084
 20
92.64291749569895
 10
6.500000000000089
 20
79.64291749569897
 42
0.4142135623731127
 10
7.00000000000009
 20
79.14291749569894
 10
20.00000000000009
 20
79.14291749569898
 42
0.4142135623731054
 10
20.50000000000008
 20
79.64291749569898
 10
20.50000000000009
 20
92.64291749569898
 42
0.414213562373095
  0
LWPOLYLINE
  5
84
100
AcDbEntity
  8
0
  6
ByLayer
 62
  256
370
   -1
100
AcDbPolyline
 90
   24
 70
    1
 43
0
 10
40.8442500000001
 20
21.49291749569894
 42
-0.4142135623730909
 10
41.34425000000009
 20
21.99291749569895
 10
43.81250000000009
 20
21.99291749569895
 42
0.4142135623731096
 10
44.31250000000007
 20
22.49291749569896
 10
44.31250000000009
 20
35.49291749569895
 42
0.414213562373095
 10
43.81250000000009
 20
35.99291749569896
 10
9.381250000000083
 20
35.99291749569895
 42
0.414213562373094
 10
8.881250000000094
 20
35.49291749569895
 10
8.881250000000083
 20
22.49291749569896
 42
0.4142135623731065
 10
9.381250000000083
 20
21.99291749569895
 10
9.468250000000078
 20
21.99291749569895
 42
-0.4142135623730981
 10
9.968250000000076
 20
21.49291749569896
 10
9.968250000000079
 20
20.49291749569894
 42
0.4142135623730961
 10
10.46825000000008
 20
19.99291749569893
 10
16.46825000000008
 20
19.99291749569893
 42
0.414213562373095
 10
16.96825000000009
 20
20.49291749569894
 10
16.96825000000008
 20
21.49291749569894
 42
-0.4142135623731054
 10
17.46825000000009
 20
21.99291749569895
 10
33.34425000000009
 20
21.99291749569896
 42
-0.4142135623730929
 10
33.84425000000009
 20
21.49291749569895
 10
33.84425000000008
 20
20.49291749569894
 42
0.414213562373095
 10
34.34425000000008
 20
19.99291749569894
 10
40.34425000000007
 20
19.99291749569895
 42
0.414213562373095
 10
40.84425000000009
 20
20.49291749569894
  0
LWPOLYLINE
  5
85
100
AcDbEntity
  8
0
  6
ByLayer
 62
  256
370
   -1
100
AcDbPolyline
 90
    8
 70
    1
 43
0
 10
186.6875000000001
 20
55.04291749569895
 10
173.6875000000001
 20
55.04291749569896
 42
0.4142135623730992
 10
173.1875000000001
 20
54.54291749569894
 10
173.1875000000001
 20
41.54291749569894
 42
0.4142135623730867
 10
173.6875000000001
 20
41.04291749569892
 10
186.6875000000001
 20
41.0429174956989
 42
0.4142135623730992
 10
187.1875000000001
 20
41.54291749569892
 10
187.1875000000001
 20
54.54291749569894
 42
0.4142135623730992
  0
LWPOLYLINE
  5
86
100
AcDbEntity
  8
0
  6
ByLayer
 62
  256
370
   -1
100
AcDbPolyline
 90
    8
 70
    1
 43
0
 10
96.7000000000001
 20
79.64291749569895
 10
96.7000000000001
 20
92.64291749569897
 42
0.414213562373095
 10
96.20000000000009
 20
93.14291749569897
 10
83.20000000000009
 20
93.14291749569894
 42
0.4142135623731034
 10
82.7000000000001
 20
92.64291749569894
 10
82.70000000000009
 20
79.64291749569895
 42
0.4142135623731117
 10
83.20000000000009
 20
79.14291749569892
 10
96.20000000000009
 20
79.14291749569895
 42
0.414213562373095
  0
LWPOLYLINE
  5
87
100
AcDbEntity
  8
0
  6
ByLayer
 62
  256
370
   -1
100
AcDbPolyline
 90
    8
 70
    1
 43
0
 10
210.5000000000001
 20
93.14291749569892
 10
197.5000000000001
 20
93.14291749569895
 42
0.4142135623731117
 10
197.0000000000001
 20
92.64291749569892
 10
197.0000000000001
 20
79.64291749569892
 42
0.414213562373095
 10
197.5000000000001
 20
79.14291749569892
 10
210.5000000000001
 20
79.14291749569892
 42
0.4142135623731034
 10
211.0000000000001
 20
79.64291749569894
 10
211.0000000000001
 20
92.64291749569895
 42
0.414213562373095
  0
LWPOLYLINE
  5
88
100
AcDbEntity
  8
0
  6
ByLayer
 62
  256
370
   -1
100
AcDbPolyline
 90
    8
 70
    1
 43
0
 10
172.4000000000001
 20
93.14291749569897
 10
159.4000000000001
 20
93.14291749569895
 42
0.4142135623731034
 10
158.9000000000001
 20
92.64291749569894
 10
158.9000000000001
 20
79.64291749569894
 42
0.414213562373095
 10
159.4000000000001
 20
79.14291749569894
 10
172.4000000000001
 20
79.14291749569894
 42
0.4142135623731034
 10
172.9000000000001
 20
79.64291749569895
 10
172.9000000000001
 20
92.64291749569897
 42
0.414213562373095
  0
LWPOLYLINE
  5
89
100
AcDbEntity
  8
0
  6
ByLayer
 62
  256
370
   -1
100
AcDbPolyline
 90
    8
 70
    1
 43
0
 10
39.83750000000008
 20
54.54291749569896
 42
-0.414213562373095
 10
40.33750000000009
 20
55.04291749569897
 10
53.33750000000009
 20
55.04291749569894
 42
-0.4142135623730867
 10
53.83750000000008
 20
54.54291749569896
 10
53.8375000000001
 20
41.54291749569895
 42
-0.4142135623731075
 10
53.33750000000009
 20
41.04291749569892
 10
40.33750000000009
 20
41.04291749569892
 42
-0.4142135623731075
 10
39.83750000000008
 20
41.54291749569895
  0
LWPOLYLINE
  5
8A
100
AcDbEntity
  8
0
  6
ByLayer
 62
  256
370
   -1
100
AcDbPolyline
 90
    8
 70
    1
 43
0
 10
162.8750000000001
 20
74.09291749569893
 10
149.8750000000001
 20
74.09291749569893
 42
0.414213562373095
 10
149.3750000000001
 20
73.59291749569893
 10
149.3750000000001
 20
60.59291749569891
 42
0.4142135623730867
 10
149.8750000000001
 20
60.09291749569892
 10
162.8750000000001
 20
60.09291749569891
 42
0.4142135623731034
 10
163.3750000000001
 20
60.59291749569893
 10
163.3750000000001
 20
73.59291749569893
 42
0.414213562373095
  0
LWPOLYLINE
  5
8B
100
AcDbEntity
  8
0
  6
ByLayer
 62
  256
370
   -1
100
AcDbPolyline
 90
    8
 70
    1
 43
0
 10
48.57500000000009
 20
74.09291749569894
 10
35.57500000000009
 20
74.09291749569893
 42
0.414213562373095
 10
35.0750000000001
 20
73.59291749569894
 10
35.07500000000009
 20
60.59291749569892
 42
0.4142135623730867
 10
35.57500000000009
 20
60.09291749569895
 10
48.57500000000009
 20
60.09291749569895
 42
0.4142135623730909
 10
49.07500000000007
 20
60.59291749569893
 10
49.0750000000001
 20
73.59291749569894
 42
0.4142135623731034
  0
LWPOLYLINE
  5
8C
100
AcDbEntity
  8
0
  6
ByLayer
 62
  256
370
   -1
100
AcDbPolyline
 90
    8
 70
    1
 43
0
 10
105.7250000000001
 20
74.09291749569893
 10
92.72500000000009
 20
74.09291749569893
 42
0.414213562373095
 10
92.22500000000009
 20
73.59291749569893
 10
92.22500000000009
 20
60.59291749569893
 42
0.414213562373095
 10
92.72500000000009
 20
60.09291749569893
 10
105.7250000000001
 20
60.09291749569892
 42
0.4142135623730992
 10
106.2250000000001
 20
60.59291749569893
 10
106.2250000000001
 20
73.59291749569893
 42
0.414213562373095
  0
LWPOLYLINE
  5
8D
100
AcDbEntity
  8
0
  6
ByLayer
 62
  256
370
   -1
100
AcDbPolyline
 90
    8
 70
    1
 43
0
 10
87.17500000000011
 20
60.59291749569892
 10
87.1750000000001
 20
73.59291749569893
 42
0.414213562373095
 10
86.67500000000011
 20
74.09291749569891
 10
73.6750000000001
 20
74.09291749569893
 42
0.4142135623730867
 10
73.17500000000011
 20
73.59291749569893
 10
73.1750000000001
 20
60.59291749569893
 42
0.414213562373095
 10
73.6750000000001
 20
60.09291749569893
 10
86.67500000000011
 20
60.09291749569893
 42
0.4142135623730909
  0
LWPOLYLINE
  5
8E
100
AcDbEntity
  8
0
  6
ByLayer
 62
  256
370
   -1
100
AcDbPolyline
 90
    8
 70
    1
 43
0
 10
305.7500000000001
 20
35.99291749569893
 10
292.7500000000001
 20
35.9929174956989
 42
0.4142135623730742
 10
292.2500000000002
 20
35.49291749569892
 10
292.2500000000001
 20
22.49291749569891
 42
0.4142135623730971
 10
292.7500000000001
 20
21.9929174956989
 10
305.7500000000001
 20
21.99291749569892
 42
0.414213562373095
 10
306.2500000000001
 20
22.49291749569891
 10
306.2500000000001
 20
35.49291749569892
 42
0.4142135623730992
  0
LWPOLYLINE
  5
8F
100
AcDbEntity
  8
0
  6
ByLayer
 62
  256
370
   -1
100
AcDbPolyline
 90
    8
 70
    1
 43
0
 10
77.93750000000009
 20
54.54291749569896
 42
-0.4142135623730992
 10
78.43750000000009
 20
55.04291749569897
 10
91.4375000000001
 20
55.04291749569897
 42
-0.4142135623730992
 10
91.9375000000001
 20
54.54291749569895
 10
91.9375000000001
 20
41.54291749569892
 42
-0.4142135623730992
 10
91.4375000000001
 20
41.04291749569891
 10
78.43750000000009
 20
41.04291749569894
 42
-0.4142135623730909
 10
77.93750000000009
 20
41.54291749569893
  0
LWPOLYLINE
  5
90
100
AcDbEntity
  8
0
  6
ByLayer
 62
  256
370
   -1
100
AcDbPolyline
 90
    8
 70
    1
 43
0
 10
205.7375000000001
 20
55.04291749569894
 10
192.7375000000001
 20
55.04291749569893
 42
0.4142135623730992
 10
192.2375000000001
 20
54.54291749569894
 10
192.2375000000001
 20
41.54291749569894
 42
0.4142135623731034
 10
192.7375000000001
 20
41.04291749569892
 10
205.7375000000001
 20
41.04291749569889
 42
0.4142135623730992
 10
206.2375000000001
 20
41.54291749569891
 10
206.2375000000001
 20
54.54291749569894
 42
0.4142135623730992
  0
LWPOLYLINE
  5
91
100
AcDbEntity
  8
0
  6
ByLayer
 62
  256
370
   -1
100
AcDbPolyline
 90
    8
 70
    1
 43
0
 10
196.2125000000001
 20
35.99291749569895
 10
183.2125000000001
 20
35.99291749569892
 42
0.4142135623730909
 10
182.7125000000001
 20
35.49291749569893
 10
182.7125000000001
 20
22.49291749569894
 42
0.4142135623730701
 10
183.2125000000001
 20
21.99291749569892
 10
196.2125000000001
 20
21.99291749569893
 42
0.4142135623730867
 10
196.7125000000001
 20
22.49291749569893
 10
196.7125000000001
 20
35.49291749569893
 42
0.4142135623730909
  0
LWPOLYLINE
  5
92
100
AcDbEntity
  8
0
  6
ByLayer
 62
  256
370
   -1
100
AcDbPolyline
 90
    8
 70
    1
 43
0
 10
25.2625000000001
 20
60.59291749569893
 10
25.26250000000009
 20
73.59291749569894
 42
0.414213562373095
 10
24.76250000000009
 20
74.09291749569894
 10
11.76250000000009
 20
74.09291749569894
 42
0.4142135623730919
 10
11.2625000000001
 20
73.59291749569894
 10
11.26250000000009
 20
60.59291749569893
 42
0.4142135623730857
 10
11.76250000000009
 20
60.09291749569894
 10
24.76250000000009
 20
60.09291749569893
 42
0.4142135623730909
  0
LWPOLYLINE
  5
93
100
AcDbEntity
  8
0
  6
ByLayer
 62
  256
370
   -1
100
AcDbPolyline
 90
    8
 70
    1
 43
0
 10
305.7500000000001
 20
16.94291749569891
 10
292.7500000000001
 20
16.9429174956989
 42
0.4142135623730929
 10
292.2500000000001
 20
16.4429174956989
 10
292.2500000000002
 20
3.442917495698913
 42
0.4142135623730909
 10
292.7500000000001
 20
2.942917495698906
 10
305.7500000000001
 20
2.94291749569887
 42
0.4142135623730981
 10
306.2500000000001
 20
3.442917495698879
 10
306.2500000000001
 20
16.4429174956989
 42
0.4142135623730971
  0
LWPOLYLINE
  5
94
100
AcDbEntity
  8
0
  6
ByLayer
 62
  256
370
   -1
100
AcDbPolyline
 90
   34
 70
    1
 43
0
 10
284.3187500000001
 20
64.56791749569894
 42
-0.4142135623730701
 10
283.8187500000002
 20
65.06791749569891
 10
283.8187500000001
 20
73.59291749569894
 42
0.4142136015523272
 10
283.318749933117
 20
74.09291749569894
 10
268.9375000000001
 20
74.09291749569891
 42
0.414213562373095
 10
268.4375000000001
 20
73.59291749569891
 10
268.4375000000001
 20
60.59291749569891
 42
0.414213562373095
 10
268.9375000000001
 20
60.09291749569891
 10
270.3187500000001
 20
60.09291749569896
 42
-0.4142135623730326
 10
270.8187500000001
 20
59.59291749569893
 10
270.81875
 20
55.54291749569891
 42
-0.4142135623730076
 10
270.3187500000001
 20
55.04291749569892
 10
249.8875000000001
 20
55.04291749569892
 42
0.4142135623730992
 10
249.3875000000001
 20
54.54291749569894
 10
249.3875000000001
 20
41.54291749569891
 42
0.4142135623730909
 10
249.8875000000001
 20
41.04291749569892
 10
252.3557500000001
 20
41.04291749569889
 42
-0.4142135623730701
 10
252.8557500000001
 20
40.54291749569892
 10
252.8557500000001
 20
39.5429174956989
 42
0.4142135623730659
 10
253.3557500000001
 20
39.04291749569892
 10
259.3557500000001
 20
39.04291749569891
 42
0.4142135623730992
 10
259.8557500000001
 20
39.54291749569892
 10
259.8557500000001
 20
40.5429174956989
 42
-0.4142135623730451
 10
260.3557500000001
 20
41.04291749569892
 10
276.2317500000001
 20
41.04291749569892
 42
-0.4142135623730326
 10
276.7317500000001
 20
40.54291749569889
 10
276.7317500000001
 20
39.54291749569892
 42
0.4142135623730825
 10
277.2317500000001
 20
39.04291749569891
 10
283.3187500000001
 20
39.0429174956989
 42
0.4142135623730825
 10
283.8187500000001
 20
39.54291749569891
 10
283.8187500000002
 20
50.06791749569891
 42
-0.4142135623730784
 10
284.3187500000001
 20
50.5679174956989
 42
0.4142135623731034
 10
284.8187500000001
 20
51.06791749569893
 10
284.8187500000001
 20
64.06791749569891
 42
0.4142135623731034
  0
CIRCLE
  5
95
100
AcDbEntity
  8
0
  6
ByLayer
 62
  256
370
   -1
100
AcDbCircle
 10
27.78750000000008
 20
-2.307082504301077
 40
1.200000000000001
  0
CIRCLE
  5
96
100
AcDbEntity
  8
0
  6
ByLayer
 62
  256
370
   -1
100
AcDbCircle
 10
289.7250000000001
 20
-2.307082504301119
 40
1.199999999999983
  0
LWPOLYLINE
  5
97
100
AcDbEntity
  8
0
  6
ByLayer
 62
  256
370
   -1
100
AcDbPolyline
 90
   84
 70
    1
 43
0
 10
304.8763945446765
 20
-0.7493901966087844
 42
-0.2043018768846823
 10
304.1547921200884
 20
-1.057082504301123
 10
293.9250000000001
 20
-1.05708250430112
 42
0.4142135623730919
 10
292.5750000000001
 20
-2.407082504301115
 10
292.5750000000001
 20
-3.057082504301122
 42
-0.4142135623730885
 10
291.2250000000001
 20
-4.407082504301118
 10
288.2250000000001
 20
-4.407082504301103
 42
-0.414213562373087
 10
286.8750000000001
 20
-3.057082504301122
 10
286.8750000000001
 20
-2.407082504301119
 42
0.4142135623730927
 10
285.5250000000001
 20
-1.057082504301119
 10
208.7618745465784
 20
-1.057082504301113
 42
-0.204301876884686
 10
208.0402721219902
 20
-0.749390196608801
 42
0.4264014327112233
 10
204.7930612113432
 20
-0.7493901966087816
 42
-0.2043018768846848
 10
204.071458786755
 20
-1.057082504301108
 10
160.5750000000001
 20
-1.057082504301101
 42
0.4142135623730951
 10
159.2250000000001
 20
-2.407082504301099
 10
159.2250000000001
 20
-3.057082504301107
 42
-0.414213562373094
 10
157.8750000000001
 20
-4.407082504301102
 10
154.8750000000001
 20
-4.407082504301103
 42
-0.414213562373095
 10
153.5250000000001
 20
-3.057082504301105
 10
153.5250000000001
 20
-2.407082504301103
 42
0.4142135623730961
 10
152.1750000000001
 20
-1.057082504301101
 10
108.6785412132451
 20
-1.057082504301093
 42
-0.2043018768846851
 10
107.9569387886568
 20
-0.7493901966087932
 42
0.4264014327112254
 10
104.7097278780099
 20
-0.749390196608789
 42
-0.2043018768846853
 10
103.9881254534216
 20
-1.057082504301094
 10
31.98750000000008
 20
-1.057082504301083
 42
0.4142135623730919
 10
30.63750000000008
 20
-2.407082504301079
 10
30.63750000000008
 20
-3.057082504301087
 42
-0.4142135623730955
 10
29.28750000000008
 20
-4.407082504301086
 10
26.28750000000008
 20
-4.407082504301096
 42
-0.4142135623730961
 10
24.93750000000007
 20
-3.057082504301084
 10
24.93750000000007
 20
-2.407082504301083
 42
0.4142135623730945
 10
23.58750000000008
 20
-1.057082504301083
 10
8.595207879911726
 20
-1.057082504301082
 42
-0.2043018768846809
 10
7.873605455323495
 20
-0.749390196608773
 42
0.2043018768846774
 10
6.250000000000001
 20
-0.05708250430107796
 10
4.250000000000025
 20
-0.05708250430111894
 42
-0.4142135623730966
 10
2.75
 20
1.442917495698915
 10
2.749999999999971
 20
94.64291749569841
 42
-0.4142135623730898
 10
4.250000000000019
 20
96.14291749569846
 10
6.250000000000021
 20
96.14291749569844
 42
0.2043018768847038
 10
7.873605455323676
 20
96.83522518800629
 42
-0.2043018768847098
 10
8.595207879911969
 20
97.14291749569867
 10
37.8750000000001
 20
97.1429174956987
 42
0.4142135623730888
 10
39.22500000000009
 20
98.49291749569866
 10
39.22500000000006
 20
99.14291749569863
 42
-0.4142135623731058
 10
40.5750000000001
 20
100.4929174956987
 10
43.57500000000012
 20
100.4929174956986
 42
-0.4142135623730919
 10
44.9250000000001
 20
99.14291749569864
 10
44.92500000000009
 20
98.49291749569866
 42
0.4142135623730919
 10
46.2750000000001
 20
97.14291749569867
 10
103.9881254534214
 20
97.14291749569868
 42
-0.2043018768847297
 10
104.7097278780097
 20
96.83522518800629
 42
0.4264014327112853
 10
107.956938788657
 20
96.83522518800626
 42
-0.2043018768846936
 10
108.6785412132453
 20
97.14291749569867
 10
152.1750000000001
 20
97.14291749569868
 42
0.4142135623730825
 10
153.5250000000001
 20
98.49291749569865
 10
153.5250000000001
 20
99.14291749569861
 42
-0.4142135623730981
 10
154.8750000000001
 20
100.4929174956986
 10
157.8750000000001
 20
100.4929174956986
 42
-0.4142135623731075
 10
159.2250000000001
 20
99.14291749569861
 10
159.2250000000001
 20
98.49291749569865
 42
0.414213562373095
 10
160.5750000000001
 20
97.14291749569865
 10
204.0714587867548
 20
97.14291749569863
 42
-0.2043018768847098
 10
204.7930612113431
 20
96.83522518800626
 42
0.4264014327112745
 10
208.0402721219904
 20
96.83522518800626
 42
-0.2043018768847154
 10
208.7618745465787
 20
97.14291749569864
 10
285.5250000000001
 20
97.14291749569867
 42
0.4142135623730919
 10
286.8750000000001
 20
98.49291749569868
 10
286.875
 20
99.14291749569861
 42
-0.4142135623731013
 10
288.2250000000001
 20
100.4929174956987
 10
291.2250000000001
 20
100.4929174956986
 42
-0.4142135623730701
 10
292.5750000000001
 20
99.14291749569864
 10
292.5750000000001
 20
98.49291749569862
 42
0.4142135623730919
 10
293.9250000000001
 20
97.14291749569863
 10
304.1547921200881
 20
97.14291749569861
 42
-0.2043018768847075
 10
304.8763945446764
 20
96.83522518800625
 42
0.2043018768846969
 10
306.5000000000001
 20
96.14291749569837
 10
308.5000000000001
 20
96.14291749569841
 42
-0.4142135623731088
 10
310.0000000000001
 20
94.64291749569834
 10
310.0000000000001
 20
1.442917495698849
 42
-0.4142135623731003
 10
308.5000000000001
 20
-0.05708250430112941
 10
306.5
 20
-0.05708250430113049
 42
0.2043018768846867
  0
ENDSEC
  0
SECTION
  2
OBJECTS
  0
DICTIONARY
  5
C
330
0
100
AcDbDictionary
281
    1
  3
ACAD_GROUP
350
D
  0
DICTIONARY
  5
D
330
C
100
AcDbDictionary
281
    1
  0
ENDSEC
  0
EOF
