<?xml version="1.0" standalone="no"?>
 <!DOCTYPE svg PUBLIC "-//W3C//DTD SVG 1.1//EN" 
 "http://www.w3.org/Graphics/SVG/1.1/DTD/svg11.dtd"> 
<svg
  xmlns:svg="http://www.w3.org/2000/svg"
  xmlns="http://www.w3.org/2000/svg"
  xmlns:xlink="http://www.w3.org/1999/xlink"
  version="1.1"
  width="33.098740cm" height="12.382500cm" viewBox="0 0 330987400 123825000">
<title>SVG Picture created as kbd67mkii_ansi_half_plate-Edge_Cuts.svg date 2020/06/25 20:47:26 </title>
  <desc>Picture generated by PCBNEW </desc>
<g style="fill:#000000; fill-opacity:1.000000;stroke:#000000; stroke-opacity:1.000000;
stroke-linecap:round; stroke-linejoin:round;"
 transform="translate(0 0) scale(1 1)">
</g>
<g style="fill:#000000; fill-opacity:0.0; 
stroke:#000000; stroke-width:0.000000; stroke-opacity:1; 
stroke-linecap:round; stroke-linejoin:round;">
</g>
<g style="fill:#000000; fill-opacity:0.0; 
stroke:#000000; stroke-width:50000.000000; stroke-opacity:1; 
stroke-linecap:round; stroke-linejoin:round;">
<path d="M57149999.000000 89487500.000000 A1000001.000000 1000001.000000 0.0 0 0 58150000.000000 90487501.000000" />
<path d="M271462501.000000 34337500.000000 A1000001.000000 1000001.000000 0.0 0 0 270462500.000000 33337499.000000" />
<path d="M270462500.000000 52387501.000000 A1000001.000000 1000001.000000 0.0 0 0 271462501.000000 51387500.000000" />
<path d="M258175000.000000 52387500.000000 A1000000.000000 1000000.000000 0.0 0 0 257175000.000000 53387500.000000" />
<path d="M256175000.000000 71437501.000000 A1000001.000000 1000001.000000 0.0 0 0 257175001.000000 70437500.000000" />
<path d="M248650000.000000 71437500.000000 A1000000.000000 1000000.000000 0.0 0 0 247650000.000000 72437500.000000" />
<path d="M246650000.000000 90487501.000000 A1000001.000000 1000001.000000 0.0 0 0 247650001.000000 89487500.000000" />
<path d="M57150001.000000 72437500.000000 A1000001.000000 1000001.000000 0.0 0 0 56150000.000000 71437499.000000" />
<path d="M45243750.000000 70437500.000000 A1000001.000000 1000001.000000 0.0 0 0 46243751.000000 71437501.000000" />
<path d="M45243751.000000 53387500.000000 A1000001.000000 1000001.000000 0.0 0 0 44243750.000000 52387499.000000" />
<path d="M42862499.000000 51387500.000000 A1000001.000000 1000001.000000 0.0 0 0 43862500.000000 52387501.000000" />
<path d="M43862500.000000 33337500.000000 A1000000.000000 1000000.000000 0.0 0 0 42862500.000000 34337500.000000" />
<path d="M44243750 52387499
L43862500 52387501
" />
<path d="M45243750 70437500
L45243751 53387500
" />
<path d="M56150000 71437499
L46243751 71437501
" />
<path d="M57149999 89487500
L57150001 72437500
" />
<path d="M246650000 90487501
L58150000 90487501
" />
<path d="M247650000 72437500
L247650001 89487500
" />
<path d="M256175000 71437501
L248650000 71437500
" />
<path d="M257175000 53387500
L257175001 70437500
" />
<path d="M270462500 52387501
L258175000 52387500
" />
<path d="M271462501 34337500
L271462501 51387500
" />
<path d="M43862500 33337500
L270462500 33337499
" />
<path d="M42862499 51387500
L42862500 34337500
" />
<path d="M19193750 68403425
L19193750 55412500
" />
<path d="M37456252 68912500
L19693751 68903424
" />
<path d="M37956250 55412500
L37956250 68412498
" />
<path d="M19693750 54912500
L37456248 54912500
" />
<path d="M37956249.999996 55412498.000000 A500000.000000 500000.000000 0.0 0 0 37456248.000000 54912500.000004" />
<path d="M37456252.000000 68912499.999996 A500000.000000 500000.000000 0.0 0 0 37956249.999996 68412498.000000" />
<path d="M19193750.000001 68403425.000000 A500000.000000 500000.000000 0.0 0 0 19693751.000000 68903423.999999" />
<path d="M19693750.000000 54912500.000000 A500000.000000 500000.000000 0.0 0 0 19193750.000000 55412500.000000" />
<path d="M297012500 16812500
L264962500 16812500
" />
<path d="M297512500.000000 17312500.000000 A500000.000000 500000.000000 0.0 0 0 297012500.000000 16812500.000000" />
<path d="M297512500 30312500
L297512500 17312500
" />
<path d="M297012500.000000 30812500.000000 A500000.000000 500000.000000 0.0 0 0 297512500.000000 30312500.000000" />
<path d="M296393750 30812508
L297012500 30812508
" />
<path d="M296393750 31312508
L296393750 30812508
" />
<path d="M295893750.000000 31812508.000000 A500000.000000 500000.000000 0.0 0 0 296393750.000000 31312508.000000" />
<path d="M289893750 31812508
L295893750 31812508
" />
<path d="M289393750.000000 31312508.000000 A500000.000000 500000.000000 0.0 0 0 289893750.000000 31812508.000000" />
<path d="M289393750 30812508
L289393750 31312508
" />
<path d="M272581250 30812500
L289393750 30812508
" />
<path d="M272581250 31312508
L272581250 30812500
" />
<path d="M272081250.000000 31812508.000000 A500000.000000 500000.000000 0.0 0 0 272581250.000000 31312508.000000" />
<path d="M266081250 31812508
L272081250 31812508
" />
<path d="M265581250.000000 31312508.000000 A500000.000000 500000.000000 0.0 0 0 266081250.000000 31812508.000000" />
<path d="M265581250 30803424
L265581250 31312508
" />
<path d="M264962500 30803424
L265581250 30803424
" />
<path d="M264462500.000000 30303424.000000 A500000.000000 500000.000000 0.0 0 0 264962500.000000 30803424.000000" />
<path d="M264462500 17312500
L264462500 30303424
" />
<path d="M264962500.000000 16812500.000000 A500000.000000 500000.000000 0.0 0 0 264462500.000000 17312500.000000" />
<path d="M118283918.718814 110719637.281187 A1000000.000000 1000000.000000 0.0 0 0 118991025.414241 111012530.000000" />
<path d="M118283918.715636 110719637.265375 A2240588.000000 2240588.000000 0.0 0 0 115006594.296909 110720882.271994" />
<path d="M114299487.000000 111013775.000000 A999999.000000 999999.000000 0.0 0 0 115006592.866992 110720882.281167" />
<path d="M218367242.718814 110719622.281187 A1000000.000000 1000000.000000 0.0 0 0 219074349.414241 111012515.000000" />
<path d="M218367242.715636 110719622.265375 A2240588.000000 2240588.000000 0.0 0 0 215089918.296909 110720867.271994" />
<path d="M214382811.000000 111013760.000000 A999999.000000 999999.000000 0.0 0 0 215089916.866992 110720867.281167" />
<path d="M215091050.749864 13105399.233433 A2240588.000000 2240588.000000 0.0 0 0 218368375.168212 13104153.228844" />
<path d="M219075482.000000 12811261.000000 A999999.000000 999999.000000 0.0 0 0 218368376.133008 13104153.718833" />
<path d="M215091050.988293 13105399.011707 A1000001.000000 1000001.000000 0.0 0 0 214383943.999973 12812505.000000" />
<path d="M118992155.000000 12811261.000000 A999999.000000 999999.000000 0.0 0 0 118285049.133008 13104153.718833" />
<path d="M115007723.749864 13105399.233433 A2240588.000000 2240588.000000 0.0 0 0 118285048.168212 13104153.228844" />
<path d="M115007723.988293 13105399.011707 A1000001.000000 1000001.000000 0.0 0 0 114300616.999973 12812505.000000" />
<path d="M219074349 111012515
L295837493 111012513
" />
<path d="M170887490 111012515
L214382811 111013760
" />
<path d="M118991025 111012530
L162487499 111012514
" />
<path d="M42299992 111012514
L114299487 111013775
" />
<path d="M18917703 111012517
L33900001 111012513
" />
<path d="M14562494 110012537
L16562494 110012514
" />
<path d="M18200890.025640 110711348.273554 A2270000.000000 2270000.000000 0.0 0 0 16562494.000000 110012514.000000" />
<path d="M18200891 110711348
L18210596 110719623
" />
<path d="M18210596.511707 110719623.074079 A1000000.000000 1000000.000000 0.0 0 0 18917703.000000 111012516.999999" />
<path d="M13062494.000000 108512537.000000 A1500000.000000 1500000.000000 0.0 0 0 14562494.000000 110012537.000000" />
<path d="M39599993 114362504
L36600000 114362504
" />
<path d="M35250000.000000 113012504.000000 A1350000.000000 1350000.000000 0.0 0 0 36600000.000000 114362504.000000" />
<path d="M35250000 113012504
L35250002 112362514
" />
<path d="M35250002.000000 112362514.000000 A1350001.000000 1350001.000000 0.0 0 0 33900001.000000 111012513.000000" />
<path d="M40949992 112362514
L40949993 113012506
" />
<path d="M39599993.000000 114362504.000000 A1350000.000000 1350000.000000 0.0 0 0 40949993.000000 113012504.000000" />
<path d="M42299992.000000 111012514.000000 A1350000.000000 1350000.000000 0.0 0 0 40949992.000000 112362514.000000" />
<path d="M163837498 113012505
L163837500 112362515
" />
<path d="M170887490.000000 111012515.000000 A1350000.000000 1350000.000000 0.0 0 0 169537490.000000 112362515.000000" />
<path d="M163837498.000000 113012505.000000 A1350000.000000 1350000.000000 0.0 0 0 165187498.000000 114362505.000000" />
<path d="M168187491.000000 114362505.000000 A1350000.000000 1350000.000000 0.0 0 0 169537491.000000 113012505.000000" />
<path d="M168187491 114362505
L165187498 114362505
" />
<path d="M169537490 112362515
L169537491 113012507
" />
<path d="M163837500.000000 112362515.000000 A1350001.000000 1350001.000000 0.0 0 0 162487499.000000 111012514.000000" />
<path d="M304237484 111012514
L314457258 111012481
" />
<path d="M297187492.000000 113012504.000000 A1350000.000000 1350000.000000 0.0 0 0 298537492.000000 114362504.000000" />
<path d="M297187492 113012504
L297187494 112362514
" />
<path d="M301537485 114362504
L298537492 114362504
" />
<path d="M302887484 112362514
L302887485 113012506
" />
<path d="M301537485.000000 114362504.000000 A1350000.000000 1350000.000000 0.0 0 0 302887485.000000 113012504.000000" />
<path d="M297187494.000000 112362514.000000 A1350001.000000 1350001.000000 0.0 0 0 295837493.000000 111012513.000000" />
<path d="M304237484.000000 111012514.000000 A1350000.000000 1350000.000000 0.0 0 0 302887484.000000 112362514.000000" />
<path d="M320312496 108512476
L320312466 15312499
" />
<path d="M316812466 110012476
L318812496 110012476
" />
<path d="M316812466.000000 110012476.000000 A2269998.000000 2269998.000000 0.0 0 0 315174072.033594 110711311.101361" />
<path d="M315174070 110711310
L315164365 110719584
" />
<path d="M314457258.000000 111012481.000000 A1000001.000000 1000001.000000 0.0 0 0 315164365.488293 110719587.488293" />
<path d="M318812496.000000 110012476.000000 A1500000.000000 1500000.000000 0.0 0 0 320312496.000000 108512476.000000" />
<path d="M316812466 13812478
L318812466 13812499
" />
<path d="M304237484 12812506
L314457258 12812474
" />
<path d="M219075482 12811261
L295837494 12812506
" />
<path d="M170887474 12812506
L214383944 12812505
" />
<path d="M320312466.000000 15312499.000000 A1500000.000000 1500000.000000 0.0 0 0 318812466.000000 13812499.000000" />
<path d="M315174070.282217 13113643.004686 A2270000.000000 2270000.000000 0.0 0 0 316812466.000000 13812478.000000" />
<path d="M315174070 13113643
L315164365 13105367
" />
<path d="M315164364.781187 13105367.218813 A1000000.000000 1000000.000000 0.0 0 0 314457258.000000 12812474.000000" />
<path d="M295837494.000000 12812506.000000 A1350000.000000 1350000.000000 0.0 0 0 297187494.000000 11462506.000000" />
<path d="M302887486.000000 10812516.000000 A1350000.000000 1350000.000000 0.0 0 0 301537486.000000 9462516.000000" />
<path d="M298537493 9462516
L301537486 9462516
" />
<path d="M302887486 10812516
L302887484 11462506
" />
<path d="M298537493.000000 9462516.000000 A1350000.000000 1350000.000000 0.0 0 0 297187493.000000 10812516.000000" />
<path d="M297187494 11462506
L297187493 10812516
" />
<path d="M302887484.000000 11462506.000000 A1350000.000000 1350000.000000 0.0 0 0 304237484.000000 12812506.000000" />
<path d="M162487484.000000 12812506.000000 A1350000.000000 1350000.000000 0.0 0 0 163837484.000000 11462506.000000" />
<path d="M163837484 11462506
L163837483 10812516
" />
<path d="M165187483 9462516
L168187476 9462516
" />
<path d="M165187483.000000 9462516.000000 A1350000.000000 1350000.000000 0.0 0 0 163837483.000000 10812516.000000" />
<path d="M169537474.000000 11462506.000000 A1350000.000000 1350000.000000 0.0 0 0 170887474.000000 12812506.000000" />
<path d="M169537476 10812516
L169537474 11462506
" />
<path d="M169537476.000000 10812516.000000 A1350000.000000 1350000.000000 0.0 0 0 168187476.000000 9462516.000000" />
<path d="M14562500.000000 13812494.000000 A1500000.000000 1500000.000000 0.0 0 0 13062500.000000 15312494.000000" />
<path d="M14562500 13812494
L16562494 13812494
" />
<path d="M18200890 13113659
L18210595 13105383
" />
<path d="M16562494.000000 13812494.000000 A2270000.000000 2270000.000000 0.0 0 0 18200889.717783 13113659.004686" />
<path d="M18917702.000000 12812490.000000 A1000000.000000 1000000.000000 0.0 0 0 18210595.218813 13105383.218813" />
<path d="M49537492 11462506
L49537491 10812516
" />
<path d="M48187492.000000 12812506.000000 A1350000.000000 1350000.000000 0.0 0 0 49537492.000000 11462506.000000" />
<path d="M50887491 9462516
L53887484 9462516
" />
<path d="M50887491.000000 9462516.000000 A1350000.000000 1350000.000000 0.0 0 0 49537491.000000 10812516.000000" />
<path d="M55237484 10812516
L55237482 11462506
" />
<path d="M55237484.000000 10812516.000000 A1350000.000000 1350000.000000 0.0 0 0 53887484.000000 9462516.000000" />
<path d="M55237482.000000 11462506.000000 A1350000.000000 1350000.000000 0.0 0 0 56587482.000000 12812506.000000" />
<path d="M118992155 12811261
L162487484 12812506
" />
<path d="M56587482 12812506
L114300617 12812506
" />
<path d="M18917702 12812490
L48187492 12812506
" />
<path d="M13062494 108512537
L13062500 15312494
" />
</g>
<g style="fill:#000000; fill-opacity:0.0; 
stroke:#000000; stroke-width:10007.000000; stroke-opacity:1; 
stroke-linecap:round; stroke-linejoin:round;">
<path d="M247506250 93512500
L247506250 106512500
" />
<path d="M234006250 93012500
L247006250 93012500
" />
<path d="M233506250.000000 106503424.000000 A500000.000000 500000.000000 0.0 0 0 234006250.000000 107003424.000000" />
<path d="M234006250 107003424
L247006250 107012500
" />
<path d="M234006250.000000 93012500.000000 A500000.000000 500000.000000 0.0 0 0 233506250.000000 93512500.000000" />
<path d="M247506250.000000 93512500.000000 A500000.000000 500000.000000 0.0 0 0 247006250.000000 93012500.000000" />
<path d="M233506250 93512500
L233506250 106503424
" />
<path d="M247006250.000000 107012500.000000 A500000.000000 500000.000000 0.0 0 0 247506250.000000 106512500.000000" />
<path d="M223193750.000000 107012500.000000 A500000.000000 500000.000000 0.0 0 0 223693750.000000 106512500.000000" />
<path d="M209693750 93512500
L209693750 106503424
" />
<path d="M223693750.000000 93512500.000000 A500000.000000 500000.000000 0.0 0 0 223193750.000000 93012500.000000" />
<path d="M210193750.000000 93012500.000000 A500000.000000 500000.000000 0.0 0 0 209693750.000000 93512500.000000" />
<path d="M210193750 107003424
L223193750 107012500
" />
<path d="M209693750.000000 106503424.000000 A500000.000000 500000.000000 0.0 0 0 210193750.000000 107003424.000000" />
<path d="M210193750 93012500
L223193750 93012500
" />
<path d="M223693750 93512500
L223693750 106512500
" />
<path d="M138256578 106512492
L138256578 93512493
" />
<path d="M192262500.000000 92012492.000000 A500000.000000 500000.000000 0.0 0 0 191762500.000000 92512492.000000" />
<path d="M198762500.000000 92512492.000000 A500000.000000 500000.000000 0.0 0 0 198262500.000000 92012492.000000" />
<path d="M191762500.000000 105512500.000000 A500000.000000 500000.000000 0.0 0 0 192262500.000000 106012500.000000" />
<path d="M198262500.000000 106012500.000000 A500000.000000 500000.000000 0.0 0 0 198762500.000000 105512500.000000" />
<path d="M98750000.000000 92512500.000000 A500000.000000 500000.000000 0.0 0 0 98250000.000000 92012500.000000" />
<path d="M91750000.000000 105512500.000000 A500000.000000 500000.000000 0.0 0 0 92250000.000000 106012500.000000" />
<path d="M98250000.000000 106012500.000000 A500000.000000 500000.000000 0.0 0 0 98750000.000000 105512500.000000" />
<path d="M91750000 105512500
L91750000 92512500
" />
<path d="M98750000 105512500
L98750000 92512500
" />
<path d="M191762500 105512492
L191762500 92512492
" />
<path d="M198762500 105512492
L198762500 92512500
" />
<path d="M198262500 92012492
L192262500 92012492
" />
<path d="M198262500 106012492
L192262500 106012500
" />
<path d="M92250000.000000 92012500.000000 A500000.000000 500000.000000 0.0 0 0 91750000.000000 92512500.000000" />
<path d="M98250000 92012500
L92250000 92012500
" />
<path d="M98250000 106012500
L92250000 106012500
" />
<path d="M138756578.000000 93012493.000000 A500000.000000 500000.000000 0.0 0 0 138256578.000000 93512493.000000" />
<path d="M151756250 107012500
L138756250 107012500
" />
<path d="M152256250.000000 93512500.000000 A500000.000000 500000.000000 0.0 0 0 151756250.000000 93012500.000000" />
<path d="M151756250 93012500
L138756250 93012500
" />
<path d="M151756250.000000 107012500.000000 A500000.000000 500000.000000 0.0 0 0 152256250.000000 106512500.000000" />
<path d="M138256250.000000 106512500.000000 A500000.000000 500000.000000 0.0 0 0 138756250.000000 107012500.000000" />
<path d="M152256250 106512500
L152256250 93512500
" />
<path d="M80818750 93512500
L80818750 106512500
" />
<path d="M67318750 93012500
L80318750 93012500
" />
<path d="M66818750.000000 106503424.000000 A500000.000000 500000.000000 0.0 0 0 67318750.000000 107003424.000000" />
<path d="M67318750 107003424
L80318750 107012500
" />
<path d="M67318750.000000 93012500.000000 A500000.000000 500000.000000 0.0 0 0 66818750.000000 93512500.000000" />
<path d="M80818750.000000 93512500.000000 A500000.000000 500000.000000 0.0 0 0 80318750.000000 93012500.000000" />
<path d="M66818750 93512500
L66818750 106503424
" />
<path d="M80318750.000000 107012500.000000 A500000.000000 500000.000000 0.0 0 0 80818750.000000 106512500.000000" />
<path d="M56506250.000000 107012500.000000 A500000.000000 500000.000000 0.0 0 0 57006250.000000 106512500.000000" />
<path d="M43006250 93512500
L43006250 106503424
" />
<path d="M57006250.000000 93512500.000000 A500000.000000 500000.000000 0.0 0 0 56506250.000000 93012500.000000" />
<path d="M43506250.000000 93012500.000000 A500000.000000 500000.000000 0.0 0 0 43006250.000000 93512500.000000" />
<path d="M43506250 107003424
L56506250 107012500
" />
<path d="M43006250.000000 106503424.000000 A500000.000000 500000.000000 0.0 0 0 43506250.000000 107003424.000000" />
<path d="M43506250 93012500
L56506250 93012500
" />
<path d="M57006250 93512500
L57006250 106512500
" />
<path d="M33193750 93512500
L33193750 106512500
" />
<path d="M19693750 93012500
L32693750 93012500
" />
<path d="M19193750.000000 106503424.000000 A500000.000000 500000.000000 0.0 0 0 19693750.000000 107003424.000000" />
<path d="M19693750 107003424
L32693750 107012500
" />
<path d="M19693750.000000 93012500.000000 A500000.000000 500000.000000 0.0 0 0 19193750.000000 93512500.000000" />
<path d="M33193750.000000 93512500.000000 A500000.000000 500000.000000 0.0 0 0 32693750.000000 93012500.000000" />
<path d="M19193750 93512500
L19193750 106503424
" />
<path d="M32693750.000000 107012500.000000 A500000.000000 500000.000000 0.0 0 0 33193750.000000 106512500.000000" />
<path d="M278462500 93512500
L278462500 106512500
" />
<path d="M264962500 93012500
L277962500 93012500
" />
<path d="M264462500.000000 106503424.000000 A500000.000000 500000.000000 0.0 0 0 264962500.000000 107003424.000000" />
<path d="M264962500 107003424
L277962500 107012500
" />
<path d="M264962500.000000 93012500.000000 A500000.000000 500000.000000 0.0 0 0 264462500.000000 93512500.000000" />
<path d="M278462500.000000 93512500.000000 A500000.000000 500000.000000 0.0 0 0 277962500.000000 93012500.000000" />
<path d="M264462500 93512500
L264462500 106503424
" />
<path d="M277962500.000000 107012500.000000 A500000.000000 500000.000000 0.0 0 0 278462500.000000 106512500.000000" />
<path d="M316062500.000000 107012500.000000 A500000.000000 500000.000000 0.0 0 0 316562500.000000 106512500.000000" />
<path d="M302562500 93512500
L302562500 106503424
" />
<path d="M316562500.000000 93512500.000000 A500000.000000 500000.000000 0.0 0 0 316062500.000000 93012500.000000" />
<path d="M303062500.000000 93012500.000000 A500000.000000 500000.000000 0.0 0 0 302562500.000000 93512500.000000" />
<path d="M303062500 107003424
L316062500 107012500
" />
<path d="M302562500.000000 106503424.000000 A500000.000000 500000.000000 0.0 0 0 303062500.000000 107003424.000000" />
<path d="M303062500 93012500
L316062500 93012500
" />
<path d="M316562500 93512500
L316562500 106512500
" />
<path d="M297512500 93512500
L297512500 106512500
" />
<path d="M284012500 93012500
L297012500 93012500
" />
<path d="M283512500.000000 106503424.000000 A500000.000000 500000.000000 0.0 0 0 284012500.000000 107003424.000000" />
<path d="M284012500 107003424
L297012500 107012500
" />
<path d="M284012500.000000 93012500.000000 A500000.000000 500000.000000 0.0 0 0 283512500.000000 93512500.000000" />
<path d="M297512500.000000 93512500.000000 A500000.000000 500000.000000 0.0 0 0 297012500.000000 93012500.000000" />
<path d="M283512500 93512500
L283512500 106503424
" />
<path d="M297012500.000000 107012500.000000 A500000.000000 500000.000000 0.0 0 0 297512500.000000 106512500.000000" />
<path d="M297012500.000000 87962500.000000 A500000.000000 500000.000000 0.0 0 0 297512500.000000 87462500.000000" />
<path d="M283512500 74462500
L283512500 87453424
" />
<path d="M297512500.000000 74462500.000000 A500000.000000 500000.000000 0.0 0 0 297012500.000000 73962500.000000" />
<path d="M284012500.000000 73962500.000000 A500000.000000 500000.000000 0.0 0 0 283512500.000000 74462500.000000" />
<path d="M284012500 87953424
L297012500 87962500
" />
<path d="M283512500.000000 87453424.000000 A500000.000000 500000.000000 0.0 0 0 284012500.000000 87953424.000000" />
<path d="M284012500 73962500
L297012500 73962500
" />
<path d="M297512500 74462500
L297512500 87462500
" />
<path d="M271318750 74462500
L271318750 87462500
" />
<path d="M257818750 73962500
L270818750 73962500
" />
<path d="M257318750.000000 87453424.000000 A500000.000000 500000.000000 0.0 0 0 257818750.000000 87953424.000000" />
<path d="M257818750 87953424
L270818750 87962500
" />
<path d="M257818750.000000 73962500.000000 A500000.000000 500000.000000 0.0 0 0 257318750.000000 74462500.000000" />
<path d="M271318750.000000 74462500.000000 A500000.000000 500000.000000 0.0 0 0 270818750.000000 73962500.000000" />
<path d="M257318750 74462500
L257318750 87453424
" />
<path d="M270818750.000000 87962500.000000 A500000.000000 500000.000000 0.0 0 0 271318750.000000 87462500.000000" />
<path d="M316562500 74462500
L316562500 87462500
" />
<path d="M303062500 73962500
L316062500 73962500
" />
<path d="M302562500.000000 87453424.000000 A500000.000000 500000.000000 0.0 0 0 303062500.000000 87953424.000000" />
<path d="M303062500 87953424
L316062500 87962500
" />
<path d="M303062500.000000 73962500.000000 A500000.000000 500000.000000 0.0 0 0 302562500.000000 74462500.000000" />
<path d="M316562500.000000 74462500.000000 A500000.000000 500000.000000 0.0 0 0 316062500.000000 73962500.000000" />
<path d="M302562500 74462500
L302562500 87453424
" />
<path d="M316062500.000000 87962500.000000 A500000.000000 500000.000000 0.0 0 0 316562500.000000 87462500.000000" />
<path d="M316062500.000000 68912500.000000 A500000.000000 500000.000000 0.0 0 0 316562500.000000 68412500.000000" />
<path d="M302562500 55412500
L302562500 68403424
" />
<path d="M316562500.000000 55412500.000000 A500000.000000 500000.000000 0.0 0 0 316062500.000000 54912500.000000" />
<path d="M303062500.000000 54912500.000000 A500000.000000 500000.000000 0.0 0 0 302562500.000000 55412500.000000" />
<path d="M303062500 68903424
L316062500 68912500
" />
<path d="M302562500.000000 68403424.000000 A500000.000000 500000.000000 0.0 0 0 303062500.000000 68903424.000000" />
<path d="M303062500 54912500
L316062500 54912500
" />
<path d="M316562500 55412500
L316562500 68412500
" />
<path d="M316562500 36362500
L316562500 49362500
" />
<path d="M303062500 35862500
L316062500 35862500
" />
<path d="M302562500.000000 49353424.000000 A500000.000000 500000.000000 0.0 0 0 303062500.000000 49853424.000000" />
<path d="M303062500 49853424
L316062500 49862500
" />
<path d="M303062500.000000 35862500.000000 A500000.000000 500000.000000 0.0 0 0 302562500.000000 36362500.000000" />
<path d="M316562500.000000 36362500.000000 A500000.000000 500000.000000 0.0 0 0 316062500.000000 35862500.000000" />
<path d="M302562500 36362500
L302562500 49353424
" />
<path d="M316062500.000000 49862500.000000 A500000.000000 500000.000000 0.0 0 0 316562500.000000 49362500.000000" />
<path d="M28718750 74462500
L28718750 87462500
" />
<path d="M42718750.000000 74462500.000000 A500000.000000 500000.000000 0.0 0 0 42218750.000000 73962500.000000" />
<path d="M29218750.000000 73962500.000000 A500000.000000 500000.000000 0.0 0 0 28718750.000000 74462500.000000" />
<path d="M29218750 87962500
L42218750 87962500
" />
<path d="M28718750.000000 87462500.000000 A500000.000000 500000.000000 0.0 0 0 29218750.000000 87962500.000000" />
<path d="M29218750 73962500
L42218750 73962500
" />
<path d="M42218422.000000 87962507.000000 A500000.000000 500000.000000 0.0 0 0 42718422.000000 87462507.000000" />
<path d="M44625000 74962508
L50625000 74962508
" />
<path d="M44625000 88962508
L50625000 88962508
" />
<path d="M50625000.000000 88962508.000000 A500000.000000 500000.000000 0.0 0 0 51125000.000000 88462508.000000" />
<path d="M20812500 74962500
L26812500 74962508
" />
<path d="M20812500 88962508
L26812500 88962508
" />
<path d="M20312500 75462508
L20312500 88462508
" />
<path d="M27312500 75462508
L27312500 88462500
" />
<path d="M44125000 75462508
L44125000 88462500
" />
<path d="M51125000 75462508
L51125000 88462508
" />
<path d="M44625000.000000 74962500.000000 A500000.000000 500000.000000 0.0 0 0 44125000.000000 75462500.000000" />
<path d="M51125000.000000 75462500.000000 A500000.000000 500000.000000 0.0 0 0 50625000.000000 74962500.000000" />
<path d="M44125000.000000 88462508.000000 A500000.000000 500000.000000 0.0 0 0 44625000.000000 88962508.000000" />
<path d="M20812500.000000 74962500.000000 A500000.000000 500000.000000 0.0 0 0 20312500.000000 75462500.000000" />
<path d="M27312500.000000 75462500.000000 A500000.000000 500000.000000 0.0 0 0 26812500.000000 74962500.000000" />
<path d="M20312500.000000 88462508.000000 A500000.000000 500000.000000 0.0 0 0 20812500.000000 88962508.000000" />
<path d="M26812500.000000 88962508.000000 A500000.000000 500000.000000 0.0 0 0 27312500.000000 88462508.000000" />
<path d="M42718422 74462508
L42718422 87462507
" />
<path d="M285605922 55412508
L285605922 68412507
" />
<path d="M269700000.000000 69912508.000000 A500000.000000 500000.000000 0.0 0 0 270200000.000000 69412508.000000" />
<path d="M263200000.000000 69412508.000000 A500000.000000 500000.000000 0.0 0 0 263700000.000000 69912508.000000" />
<path d="M270200000.000000 56412500.000000 A500000.000000 500000.000000 0.0 0 0 269700000.000000 55912500.000000" />
<path d="M263700000.000000 55912500.000000 A500000.000000 500000.000000 0.0 0 0 263200000.000000 56412500.000000" />
<path d="M287012500.000000 69412508.000000 A500000.000000 500000.000000 0.0 0 0 287512500.000000 69912508.000000" />
<path d="M294012500.000000 56412500.000000 A500000.000000 500000.000000 0.0 0 0 293512500.000000 55912500.000000" />
<path d="M287512500.000000 55912500.000000 A500000.000000 500000.000000 0.0 0 0 287012500.000000 56412500.000000" />
<path d="M294012500 56412508
L294012500 69412508
" />
<path d="M287012500 56412508
L287012500 69412500
" />
<path d="M270200000 56412508
L270200000 69412500
" />
<path d="M263200000 56412508
L263200000 69412508
" />
<path d="M263700000 69912508
L269700000 69912508
" />
<path d="M263700000 55912500
L269700000 55912508
" />
<path d="M293512500.000000 69912508.000000 A500000.000000 500000.000000 0.0 0 0 294012500.000000 69412508.000000" />
<path d="M287512500 69912508
L293512500 69912508
" />
<path d="M287512500 55912508
L293512500 55912508
" />
<path d="M285105922.000000 68912507.000000 A500000.000000 500000.000000 0.0 0 0 285605922.000000 68412507.000000" />
<path d="M272106250 54912500
L285106250 54912500
" />
<path d="M271606250.000000 68412500.000000 A500000.000000 500000.000000 0.0 0 0 272106250.000000 68912500.000000" />
<path d="M272106250 68912500
L285106250 68912500
" />
<path d="M272106250.000000 54912500.000000 A500000.000000 500000.000000 0.0 0 0 271606250.000000 55412500.000000" />
<path d="M285606250.000000 55412500.000000 A500000.000000 500000.000000 0.0 0 0 285106250.000000 54912500.000000" />
<path d="M271606250 55412500
L271606250 68412500
" />
<path d="M292250000.000000 49862500.000000 A500000.000000 500000.000000 0.0 0 0 292750000.000000 49362500.000000" />
<path d="M278750000 36362500
L278750000 49353424
" />
<path d="M292750000.000000 36362500.000000 A500000.000000 500000.000000 0.0 0 0 292250000.000000 35862500.000000" />
<path d="M279250000.000000 35862500.000000 A500000.000000 500000.000000 0.0 0 0 278750000.000000 36362500.000000" />
<path d="M279250000 49853424
L292250000 49862500
" />
<path d="M278750000.000000 49353424.000000 A500000.000000 500000.000000 0.0 0 0 279250000.000000 49853424.000000" />
<path d="M279250000 35862500
L292250000 35862500
" />
<path d="M292750000 36362500
L292750000 49362500
" />
<path d="M35575000 36362500
L35575000 49362500
" />
<path d="M22075000 35862500
L35075000 35862500
" />
<path d="M21575000.000000 49353424.000000 A500000.000000 500000.000000 0.0 0 0 22075000.000000 49853424.000000" />
<path d="M22075000 49853424
L35075000 49862500
" />
<path d="M22075000.000000 35862500.000000 A500000.000000 500000.000000 0.0 0 0 21575000.000000 36362500.000000" />
<path d="M35575000.000000 36362500.000000 A500000.000000 500000.000000 0.0 0 0 35075000.000000 35862500.000000" />
<path d="M21575000 36362500
L21575000 49353424
" />
<path d="M35075000.000000 49862500.000000 A500000.000000 500000.000000 0.0 0 0 35575000.000000 49362500.000000" />
<path d="M316062500.000000 30812500.000000 A500000.000000 500000.000000 0.0 0 0 316562500.000000 30312500.000000" />
<path d="M302562500 17312500
L302562500 30303424
" />
<path d="M316562500.000000 17312500.000000 A500000.000000 500000.000000 0.0 0 0 316062500.000000 16812500.000000" />
<path d="M303062500.000000 16812500.000000 A500000.000000 500000.000000 0.0 0 0 302562500.000000 17312500.000000" />
<path d="M303062500 30803424
L316062500 30812500
" />
<path d="M302562500.000000 30303424.000000 A500000.000000 500000.000000 0.0 0 0 303062500.000000 30803424.000000" />
<path d="M303062500 16812500
L316062500 16812500
" />
<path d="M316562500 17312500
L316562500 30312500
" />
<path d="M258912500.000000 30812500.000000 A500000.000000 500000.000000 0.0 0 0 259412500.000000 30312500.000000" />
<path d="M245412500 17312500
L245412500 30303424
" />
<path d="M259412500.000000 17312500.000000 A500000.000000 500000.000000 0.0 0 0 258912500.000000 16812500.000000" />
<path d="M245912500.000000 16812500.000000 A500000.000000 500000.000000 0.0 0 0 245412500.000000 17312500.000000" />
<path d="M245912500 30803424
L258912500 30812500
" />
<path d="M245412500.000000 30303424.000000 A500000.000000 500000.000000 0.0 0 0 245912500.000000 30803424.000000" />
<path d="M245912500 16812500
L258912500 16812500
" />
<path d="M259412500 17312500
L259412500 30312500
" />
<path d="M240362500 17312500
L240362500 30312500
" />
<path d="M226862500 16812500
L239862500 16812500
" />
<path d="M226362500.000000 30303424.000000 A500000.000000 500000.000000 0.0 0 0 226862500.000000 30803424.000000" />
<path d="M226862500 30803424
L239862500 30812500
" />
<path d="M226862500.000000 16812500.000000 A500000.000000 500000.000000 0.0 0 0 226362500.000000 17312500.000000" />
<path d="M240362500.000000 17312500.000000 A500000.000000 500000.000000 0.0 0 0 239862500.000000 16812500.000000" />
<path d="M226362500 17312500
L226362500 30303424
" />
<path d="M239862500.000000 30812500.000000 A500000.000000 500000.000000 0.0 0 0 240362500.000000 30312500.000000" />
<path d="M183212500 17312500
L183212500 30312500
" />
<path d="M169712500 16812500
L182712500 16812500
" />
<path d="M169212500.000000 30303424.000000 A500000.000000 500000.000000 0.0 0 0 169712500.000000 30803424.000000" />
<path d="M169712500 30803424
L182712500 30812500
" />
<path d="M169712500.000000 16812500.000000 A500000.000000 500000.000000 0.0 0 0 169212500.000000 17312500.000000" />
<path d="M183212500.000000 17312500.000000 A500000.000000 500000.000000 0.0 0 0 182712500.000000 16812500.000000" />
<path d="M169212500 17312500
L169212500 30303424
" />
<path d="M182712500.000000 30812500.000000 A500000.000000 500000.000000 0.0 0 0 183212500.000000 30312500.000000" />
<path d="M220812500.000000 30812500.000000 A500000.000000 500000.000000 0.0 0 0 221312500.000000 30312500.000000" />
<path d="M207312500 17312500
L207312500 30303424
" />
<path d="M221312500.000000 17312500.000000 A500000.000000 500000.000000 0.0 0 0 220812500.000000 16812500.000000" />
<path d="M207812500.000000 16812500.000000 A500000.000000 500000.000000 0.0 0 0 207312500.000000 17312500.000000" />
<path d="M207812500 30803424
L220812500 30812500
" />
<path d="M207312500.000000 30303424.000000 A500000.000000 500000.000000 0.0 0 0 207812500.000000 30803424.000000" />
<path d="M207812500 16812500
L220812500 16812500
" />
<path d="M221312500 17312500
L221312500 30312500
" />
<path d="M201762500.000000 30812500.000000 A500000.000000 500000.000000 0.0 0 0 202262500.000000 30312500.000000" />
<path d="M188262500 17312500
L188262500 30303424
" />
<path d="M202262500.000000 17312500.000000 A500000.000000 500000.000000 0.0 0 0 201762500.000000 16812500.000000" />
<path d="M188762500.000000 16812500.000000 A500000.000000 500000.000000 0.0 0 0 188262500.000000 17312500.000000" />
<path d="M188762500 30803424
L201762500 30812500
" />
<path d="M188262500.000000 30303424.000000 A500000.000000 500000.000000 0.0 0 0 188762500.000000 30803424.000000" />
<path d="M188762500 16812500
L201762500 16812500
" />
<path d="M202262500 17312500
L202262500 30312500
" />
<path d="M163662500.000000 30812500.000000 A500000.000000 500000.000000 0.0 0 0 164162500.000000 30312500.000000" />
<path d="M150162500 17312500
L150162500 30303424
" />
<path d="M164162500.000000 17312500.000000 A500000.000000 500000.000000 0.0 0 0 163662500.000000 16812500.000000" />
<path d="M150662500.000000 16812500.000000 A500000.000000 500000.000000 0.0 0 0 150162500.000000 17312500.000000" />
<path d="M150662500 30803424
L163662500 30812500
" />
<path d="M150162500.000000 30303424.000000 A500000.000000 500000.000000 0.0 0 0 150662500.000000 30803424.000000" />
<path d="M150662500 16812500
L163662500 16812500
" />
<path d="M164162500 17312500
L164162500 30312500
" />
<path d="M126062500 17312500
L126062500 30312500
" />
<path d="M112562500 16812500
L125562500 16812500
" />
<path d="M112062500.000000 30303424.000000 A500000.000000 500000.000000 0.0 0 0 112562500.000000 30803424.000000" />
<path d="M112562500 30803424
L125562500 30812500
" />
<path d="M112562500.000000 16812500.000000 A500000.000000 500000.000000 0.0 0 0 112062500.000000 17312500.000000" />
<path d="M126062500.000000 17312500.000000 A500000.000000 500000.000000 0.0 0 0 125562500.000000 16812500.000000" />
<path d="M112062500 17312500
L112062500 30303424
" />
<path d="M125562500.000000 30812500.000000 A500000.000000 500000.000000 0.0 0 0 126062500.000000 30312500.000000" />
<path d="M106512500.000000 30812500.000000 A500000.000000 500000.000000 0.0 0 0 107012500.000000 30312500.000000" />
<path d="M93012500 17312500
L93012500 30303424
" />
<path d="M107012500.000000 17312500.000000 A500000.000000 500000.000000 0.0 0 0 106512500.000000 16812500.000000" />
<path d="M93512500.000000 16812500.000000 A500000.000000 500000.000000 0.0 0 0 93012500.000000 17312500.000000" />
<path d="M93512500 30803424
L106512500 30812500
" />
<path d="M93012500.000000 30303424.000000 A500000.000000 500000.000000 0.0 0 0 93512500.000000 30803424.000000" />
<path d="M93512500 16812500
L106512500 16812500
" />
<path d="M107012500 17312500
L107012500 30312500
" />
<path d="M145112500 17312500
L145112500 30312500
" />
<path d="M131612500 16812500
L144612500 16812500
" />
<path d="M131112500.000000 30303424.000000 A500000.000000 500000.000000 0.0 0 0 131612500.000000 30803424.000000" />
<path d="M131612500 30803424
L144612500 30812500
" />
<path d="M131612500.000000 16812500.000000 A500000.000000 500000.000000 0.0 0 0 131112500.000000 17312500.000000" />
<path d="M145112500.000000 17312500.000000 A500000.000000 500000.000000 0.0 0 0 144612500.000000 16812500.000000" />
<path d="M131112500 17312500
L131112500 30303424
" />
<path d="M144612500.000000 30812500.000000 A500000.000000 500000.000000 0.0 0 0 145112500.000000 30312500.000000" />
<path d="M87962500 17312500
L87962500 30312500
" />
<path d="M74462500 16812500
L87462500 16812500
" />
<path d="M73962500.000000 30303424.000000 A500000.000000 500000.000000 0.0 0 0 74462500.000000 30803424.000000" />
<path d="M74462500 30803424
L87462500 30812500
" />
<path d="M74462500.000000 16812500.000000 A500000.000000 500000.000000 0.0 0 0 73962500.000000 17312500.000000" />
<path d="M87962500.000000 17312500.000000 A500000.000000 500000.000000 0.0 0 0 87462500.000000 16812500.000000" />
<path d="M73962500 17312500
L73962500 30303424
" />
<path d="M87462500.000000 30812500.000000 A500000.000000 500000.000000 0.0 0 0 87962500.000000 30312500.000000" />
<path d="M68412500.000000 30812500.000000 A500000.000000 500000.000000 0.0 0 0 68912500.000000 30312500.000000" />
<path d="M54912500 17312500
L54912500 30303424
" />
<path d="M68912500.000000 17312500.000000 A500000.000000 500000.000000 0.0 0 0 68412500.000000 16812500.000000" />
<path d="M55412500.000000 16812500.000000 A500000.000000 500000.000000 0.0 0 0 54912500.000000 17312500.000000" />
<path d="M55412500 30803424
L68412500 30812500
" />
<path d="M54912500.000000 30303424.000000 A500000.000000 500000.000000 0.0 0 0 55412500.000000 30803424.000000" />
<path d="M55412500 16812500
L68412500 16812500
" />
<path d="M68912500 17312500
L68912500 30312500
" />
<path d="M49362500.000000 30812500.000000 A500000.000000 500000.000000 0.0 0 0 49862500.000000 30312500.000000" />
<path d="M35862500 17312500
L35862500 30303424
" />
<path d="M49862500.000000 17312500.000000 A500000.000000 500000.000000 0.0 0 0 49362500.000000 16812500.000000" />
<path d="M36362500.000000 16812500.000000 A500000.000000 500000.000000 0.0 0 0 35862500.000000 17312500.000000" />
<path d="M36362500 30803424
L49362500 30812500
" />
<path d="M35862500.000000 30303424.000000 A500000.000000 500000.000000 0.0 0 0 36362500.000000 30803424.000000" />
<path d="M36362500 16812500
L49362500 16812500
" />
<path d="M49862500 17312500
L49862500 30312500
" />
<path d="M30812500 17312500
L30812500 30312500
" />
<path d="M17312500 16812500
L30312500 16812500
" />
<path d="M16812500.000000 30303424.000000 A500000.000000 500000.000000 0.0 0 0 17312500.000000 30803424.000000" />
<path d="M17312500 30803424
L30312500 30812500
" />
<path d="M17312500.000000 16812500.000000 A500000.000000 500000.000000 0.0 0 0 16812500.000000 17312500.000000" />
<path d="M30812500.000000 17312500.000000 A500000.000000 500000.000000 0.0 0 0 30312500.000000 16812500.000000" />
<path d="M16812500 17312500
L16812500 30303424
" />
<path d="M30312500.000000 30812500.000000 A500000.000000 500000.000000 0.0 0 0 30812500.000000 30312500.000000" />
<g >
</g>
<g >
</g>
<g >
</g>
<g >
</g>
<g >
</g>
<g >
</g>
<g >
</g>
<g >
</g>
<g >
</g>
<g >
</g>
<g >
</g>
<g >
</g>
<g >
</g>
<g >
</g>
<g >
</g>
<g >
</g>
<g >
</g>
<g >
</g>
<g >
</g>
<g >
</g>
<g >
</g>
<g >
</g>
<g >
</g>
<g >
</g>
<g >
</g>
<g >
</g>
<g >
</g>
<g >
</g>
<g >
</g>
<g >
</g>
<g >
</g>
<g >
</g>
<g >
</g>
<g >
</g>
<g >
</g>
<g >
</g>
<g >
</g>
<g >
</g>
<g >
</g>
<g >
</g>
<g >
</g>
</g> 
</svg>
